<svg width="39" height="37" viewBox="0 0 39 37" fill="none" xmlns="http://www.w3.org/2000/svg">
<g clip-path="url(#clip0)">
<path d="M19.2244 0C8.65098 0 0 8.325 0 18.5C0 28.675 8.65098 37 19.2244 37C29.7978 37 38.4488 28.675 38.4488 18.5C38.4488 8.325 29.7978 0 19.2244 0ZM23.3096 18.5H20.6662C20.6662 22.6625 20.6662 27.75 20.6662 27.75H16.7012C16.7012 27.75 16.7012 22.6625 16.7012 18.5H14.7788V15.2625H16.7012V13.1812C16.7012 11.6781 17.4221 9.25 20.7864 9.25H23.7902V12.3719C23.7902 12.3719 21.9879 12.3719 21.6274 12.3719C21.267 12.3719 20.7864 12.4875 20.7864 13.2969V15.2625H23.7902L23.3096 18.5Z" fill="#37589B"/>
</g>
<defs>
<clipPath id="clip0">
<rect width="38.4488" height="37" fill="white"/>
</clipPath>
</defs>
</svg>
