<svg width="45" height="45" viewBox="0 0 45 45" fill="none" xmlns="http://www.w3.org/2000/svg">
<circle cx="22.5" cy="22.5" r="22.5" fill="#F9BA84" fill-opacity="0.2"/>
<path d="M16 14.8C16 14.36 16.3649 14 16.8108 14C17.2568 14 17.6216 14.36 17.6216 14.8V31.2C17.6216 31.64 17.2568 32 16.8108 32C16.3649 32 16 31.64 16 31.2V14.8ZM24.8176 23.88C27.8176 22.74 27.6351 22.24 31 23.88V15.06C27.6351 13.42 27.8176 13.92 24.8176 15.06C21.8986 16.16 21.4122 16.4 18.6351 15.06C18.6351 18 18.6351 20.94 18.6351 23.88C21.4122 25.22 21.8986 24.98 24.8176 23.88Z" fill="black"/>
</svg>
