<svg width="46" height="45" viewBox="0 0 46 45" fill="none" xmlns="http://www.w3.org/2000/svg">
<circle cx="23" cy="22.5" r="22.5" fill="#F9BA84" fill-opacity="0.2"/>
<path d="M31.0052 20.1575C29.7504 20.1575 29.0699 19.8786 28.5221 19.6543C28.074 19.4711 27.752 19.3371 27.0051 19.3371C26.8988 19.3371 26.7993 19.3398 26.7063 19.3453C26.9752 19.4985 27.7985 20.0263 27.8748 20.7455C27.9644 21.5906 26.9852 22.3208 26.9453 22.3508C26.8988 22.3864 26.8391 22.4028 26.7793 22.4028C26.7329 22.4028 26.6897 22.3919 26.6499 22.3727C26.6034 22.3481 25.4847 21.7711 25.3951 20.926C25.322 20.2396 25.9561 19.6297 26.215 19.4082C25.9461 19.4656 25.7337 19.5532 25.4814 19.6543C24.9337 19.8786 24.2531 20.1575 22.9983 20.1575C21.7435 20.1575 21.063 19.8786 20.5153 19.6543C20.2663 19.5532 20.0539 19.4656 19.7883 19.4082C20.0505 19.6297 20.6813 20.2396 20.6082 20.926C20.5186 21.7711 19.4032 22.3481 19.3534 22.3727C19.3136 22.3946 19.2671 22.4028 19.224 22.4028C19.1642 22.4028 19.1044 22.3864 19.058 22.3508C19.0148 22.3208 18.0389 21.5906 18.1285 20.7455C18.2048 20.0235 19.0281 19.4985 19.297 19.3453C19.204 19.3398 19.1044 19.3371 18.9982 19.3371C18.2513 19.3371 17.9293 19.4684 17.4812 19.6543C16.9334 19.8786 16.2529 20.1575 14.9981 20.1575C14.7226 20.1575 14.5002 19.9743 14.5002 19.7473C14.5002 19.5203 14.7226 19.3371 14.9981 19.3371C15.8645 19.3371 16.3691 19.184 16.8073 19.0117C16.5384 18.9132 15.5691 18.5085 15.3334 17.7892C15.0678 16.9688 15.8778 16.1128 15.911 16.0772C15.9807 16.0061 16.0969 15.9815 16.1998 16.0143C16.2529 16.0307 17.4745 16.441 17.7401 17.2614C17.9426 17.8849 17.5243 18.5276 17.2953 18.8175C17.7102 18.6589 18.1882 18.5194 18.9982 18.5194C19.9775 18.5194 20.4754 18.7245 20.9568 18.9214C21.4248 19.1129 21.9095 19.3125 22.8025 19.3371C22.59 19.1976 21.7535 18.5932 21.7535 17.8357C21.7535 16.9879 22.8058 16.3316 22.8489 16.3042C22.9386 16.2495 23.0581 16.2495 23.1477 16.3042C23.1909 16.3316 24.2432 16.9879 24.2432 17.8357C24.2432 18.5932 23.4066 19.1976 23.1942 19.3371C24.0838 19.3125 24.5685 19.1129 25.0332 18.9214C25.5146 18.7245 26.0158 18.5194 26.9951 18.5194C27.8051 18.5194 28.2831 18.6589 28.6981 18.8175C28.469 18.5276 28.0507 17.8822 28.2532 17.2614C28.5188 16.441 29.7404 16.0335 29.7935 16.0143C29.8964 15.9815 30.0126 16.0061 30.0823 16.0772C30.1155 16.1128 30.9255 16.9715 30.6599 17.7892C30.4243 18.5085 29.4549 18.9132 29.186 19.0117C29.6242 19.184 30.1288 19.3371 30.9952 19.3371C31.2708 19.3371 31.4932 19.5203 31.4932 19.7473C31.4932 19.9743 31.2807 20.1575 31.0052 20.1575Z" fill="#333333"/>
<path d="M15.0049 26.103C15.8714 26.103 16.3759 25.9498 16.8141 25.7775C16.5452 25.6791 15.5759 25.2743 15.3402 24.5551C15.0747 23.7346 15.8846 22.8787 15.9178 22.8431C15.9875 22.772 16.1037 22.7474 16.2066 22.7802C16.2598 22.7966 17.4814 23.2068 17.7469 24.0273C17.9494 24.6508 17.5312 25.2935 17.3021 25.5834C17.7171 25.4247 18.1951 25.2853 19.0051 25.2853C19.9843 25.2853 20.4823 25.4904 20.9636 25.6873C21.4317 25.8787 21.9163 26.0784 22.8093 26.103C22.5969 25.9635 21.7603 25.3591 21.7603 24.6016C21.7603 23.7538 22.8126 23.0974 22.8558 23.0701C22.9454 23.0154 23.0649 23.0154 23.1545 23.0701C23.1977 23.0974 24.25 23.7538 24.25 24.6016C24.25 25.3591 23.4135 25.9635 23.201 26.103C24.0907 26.0784 24.5753 25.8787 25.0401 25.6873C25.5214 25.4904 26.0227 25.2853 27.002 25.2853C27.8119 25.2853 28.29 25.4247 28.7049 25.5834C28.4759 25.2935 28.0576 24.6481 28.2601 24.0273C28.5256 23.2068 29.7473 22.7993 29.8004 22.7802C29.9033 22.7474 30.0195 22.772 30.0892 22.8431C30.1224 22.8787 30.9323 23.7374 30.6668 24.5551C30.4311 25.2743 29.4618 25.6791 29.1929 25.7775C29.6311 25.9498 30.1356 26.103 31.0021 26.103C31.2776 26.103 31.5 26.2862 31.5 26.5132C31.5 26.7402 31.2776 26.9234 31.0021 26.9234C29.7473 26.9234 29.0667 26.6445 28.519 26.4202C28.0709 26.237 27.7489 26.103 27.002 26.103C26.909 26.103 26.8227 26.1057 26.7397 26.1084C27.0916 26.2507 27.9082 26.6417 28.1207 27.2953C28.3862 28.1158 27.5762 28.9718 27.543 29.0073C27.4933 29.0566 27.4235 29.0866 27.3472 29.0866C27.3173 29.0866 27.2841 29.0812 27.2542 29.073C27.2011 29.0566 25.9795 28.6463 25.714 27.8259C25.4816 27.1148 26.0625 26.3737 26.2418 26.1686C25.9596 26.226 25.7405 26.3136 25.4816 26.4202C24.9637 26.6335 24.323 26.8933 23.1911 26.9207C23.3902 27.0519 24.2467 27.6618 24.2467 28.4276C24.2467 29.2753 23.1944 29.9317 23.1512 29.959C23.1081 29.9864 23.055 30.0001 23.0018 30.0001C22.9487 30.0001 22.8956 29.9864 22.8525 29.959C22.8093 29.9317 21.757 29.2753 21.757 28.4276C21.757 27.6618 22.6135 27.0519 22.8126 26.9207C21.6773 26.8933 21.0366 26.6308 20.5155 26.4175C20.2565 26.3108 20.0408 26.2233 19.7586 26.1659C19.9379 26.371 20.5188 27.1121 20.2864 27.8232C20.0209 28.6436 18.7992 29.0511 18.7461 29.0702C18.7163 29.0812 18.6864 29.0839 18.6532 29.0839C18.5801 29.0839 18.5071 29.0566 18.4573 29.0046C18.4241 28.969 17.6141 28.1103 17.8797 27.2926C18.0922 26.6417 18.9088 26.2479 19.2607 26.1057C19.1777 26.103 19.0914 26.1002 18.9984 26.1002C18.2515 26.1002 17.9295 26.2315 17.4814 26.4175C16.9336 26.6417 16.2531 26.9207 14.9983 26.9207C14.7228 26.9207 14.5004 26.7374 14.5004 26.5105C14.5004 26.2835 14.7294 26.103 15.0049 26.103Z" fill="#333333"/>
</svg>
