<svg width="46" height="45" viewBox="0 0 46 45" fill="none" xmlns="http://www.w3.org/2000/svg">
<circle cx="23" cy="22.5" r="22.5" fill="#F9BA84" fill-opacity="0.2"/>
<path d="M27.2957 14.7656H21.7292C21.3761 14.7656 21.0397 14.9069 20.7904 15.1561L13.5457 22.3967C13.0264 22.9159 13.0264 23.7592 13.5457 24.2785L19.1122 29.8449C19.6314 30.3642 20.4747 30.3642 20.9898 29.8449L28.2345 22.6002C28.4838 22.351 28.625 22.0103 28.625 21.6572V16.0949C28.625 15.3597 28.031 14.7656 27.2957 14.7656ZM24.9694 19.4182C24.4211 19.4182 23.9724 18.9696 23.9724 18.4212C23.9724 17.8729 24.4211 17.4242 24.9694 17.4242C25.5177 17.4242 25.9664 17.8729 25.9664 18.4212C25.9664 18.9696 25.5177 19.4182 24.9694 19.4182Z" fill="#333333"/>
<path d="M29.3925 15.4688V21.9048C29.3925 22.2246 29.2705 22.5315 29.0476 22.7563L21.5938 30.4156L21.7073 30.5323C22.2331 31.0726 23.087 31.0726 23.6086 30.5323L30.3389 23.6165C30.5913 23.3571 30.7344 23.007 30.7344 22.6396V16.8519C30.7386 16.0869 30.137 15.4688 29.3925 15.4688Z" fill="#333333"/>
</svg>
