<svg width="45" height="46" viewBox="0 0 45 46" fill="none" xmlns="http://www.w3.org/2000/svg">
<circle cx="22.5" cy="22.7263" r="22.5" fill="#F9BA84" fill-opacity="0.2"/>
<path d="M13.4989 28H15.9892V29.5C15.9892 29.7767 16.2116 30 16.4872 30H29.5029C29.7785 30 30.0009 29.7767 30.0009 29.5V16.5C30.0009 16.2233 29.7785 16 29.5029 16H27.0126V15.5C27.0126 15.2233 26.7902 15 26.5146 15C26.239 15 26.0165 15.2233 26.0165 15.5V16H23.4931V15.5C23.4931 15.2233 23.2706 15 22.9951 15C22.7195 15 22.497 15.2233 22.497 15.5V16H20.0068V15.5C20.0068 15.2233 19.7843 15 19.5087 15C19.2331 15 19.0107 15.2233 19.0107 15.5V16H16.4872C16.2116 16 15.9892 16.2233 15.9892 16.5V19.5C15.9892 23.1833 14.4652 26.02 13.1802 27.1167C13.0175 27.25 12.9577 27.4733 13.0308 27.67C13.1005 27.8667 13.2898 28 13.4989 28ZM29.0048 29H16.9853V28H26.5146C26.6308 28 26.7437 27.96 26.8333 27.8833C27.431 27.3833 28.3607 26.19 29.0048 24.6633V29ZM16.9853 17H19.0107V17.5C19.0107 17.7767 19.2331 18 19.5087 18C19.7843 18 20.0068 17.7767 20.0068 17.5V17H22.497V17.5C22.497 17.7767 22.7195 18 22.9951 18C23.2706 18 23.4931 17.7767 23.4931 17.5V17H26.0165V17.5C26.0165 17.7767 26.239 18 26.5146 18C26.7902 18 27.0126 17.7767 27.0126 17.5V17H29.0048V19H16.9853V17ZM16.9753 20H28.9949C28.882 23.1733 27.6701 25.6667 26.3187 27H14.6312C16.1652 25.04 16.8956 22.49 16.9753 20Z" fill="#333333"/>
</svg>
