<svg width="10" height="25" viewBox="0 0 10 25" fill="none" xmlns="http://www.w3.org/2000/svg">
<path d="M3.05001 7.69692C3.27501 7.4812 3.40001 7.18878 3.40001 6.88197V1.3835C3.40001 1.17258 3.58001 1 3.80001 1H6.19999C6.41999 1 6.59999 1.17258 6.59999 1.3835V6.88197C6.59999 7.18878 6.72499 7.4812 6.94999 7.69692C8.26498 8.95289 9.00497 10.6595 8.99997 12.438V22.8597C8.99997 23.4972 8.46498 24.0102 7.79998 24.0102H2.20002C1.53502 24.0102 1.00003 23.4972 1.00003 22.8597V12.438C0.995026 10.6595 1.73002 8.95289 3.05001 7.69692ZM5.79999 1.76701H4.20001V2.53401H5.79999V1.76701ZM1.80002 22.8597C1.80002 23.0706 1.98002 23.2432 2.20002 23.2432H7.79998C8.01998 23.2432 8.19998 23.0706 8.19998 22.8597V21.7091H1.80002V22.8597ZM1.80002 20.9421H8.19998V13.2721H1.80002V20.9421ZM1.80002 12.5051H8.19998V12.438C8.20498 10.8608 7.54998 9.35077 6.38499 8.23861C6.00999 7.87908 5.79999 7.39011 5.79999 6.88197V3.18117H4.20001V6.88677C4.20001 7.39491 3.99001 7.88387 3.61501 8.24341C2.45002 9.35557 1.79502 10.8656 1.80002 12.4428V12.5051Z" fill="#333333" stroke="#333333" stroke-miterlimit="10"/>
</svg>
