<svg width="21" height="20" viewBox="0 0 21 20" fill="none" xmlns="http://www.w3.org/2000/svg">
<path d="M20.3884 5.66909C18.8384 5.66909 17.9977 5.28873 17.3211 4.98294C16.7675 4.73309 16.3698 4.55037 15.4471 4.55037C15.3159 4.55037 15.1929 4.5541 15.078 4.56156C15.4102 4.77039 16.4272 5.4901 16.5215 6.47084C16.6322 7.62313 15.4225 8.61879 15.3733 8.65981C15.3159 8.70829 15.2421 8.73067 15.1683 8.73067C15.1108 8.73067 15.0575 8.71575 15.0083 8.68965C14.9509 8.65608 13.569 7.86925 13.4583 6.71696C13.3681 5.78097 14.1513 4.94938 14.4711 4.64733C14.139 4.72564 13.8765 4.84497 13.5649 4.98294C12.8883 5.28873 12.0476 5.66909 10.4976 5.66909C8.94754 5.66909 8.1069 5.28873 7.43029 4.98294C7.12274 4.84497 6.8603 4.72564 6.53224 4.64733C6.8562 4.94938 7.63532 5.78097 7.54511 6.71696C7.43439 7.86925 6.05657 8.65608 5.99506 8.68965C5.94585 8.71948 5.88844 8.73067 5.83513 8.73067C5.76132 8.73067 5.6875 8.70829 5.6301 8.65981C5.57679 8.61879 4.37119 7.62313 4.48191 6.47084C4.57622 5.48637 5.59319 4.77039 5.92534 4.56156C5.81052 4.5541 5.6875 4.55037 5.55628 4.55037C4.63363 4.55037 4.23587 4.72937 3.68228 4.98294C3.00567 5.28873 2.16503 5.66909 0.614973 5.66909C0.274618 5.66909 -0.000127792 5.41925 -0.000127792 5.10973C-0.000127792 4.80022 0.274618 4.55037 0.614973 4.55037C1.68525 4.55037 2.30855 4.34154 2.84984 4.10661C2.51768 3.97236 1.32029 3.42046 1.02914 2.43971C0.701088 1.32099 1.70165 0.153788 1.74266 0.10531C1.82877 0.00835382 1.9723 -0.0252079 2.09942 0.019541C2.16503 0.0419155 3.67407 0.601277 4.00213 1.72C4.25227 2.57023 3.73558 3.44656 3.45264 3.84185C3.96522 3.62556 4.55572 3.43538 5.55628 3.43538C6.76598 3.43538 7.38108 3.71506 7.97568 3.98355C8.55387 4.24459 9.15257 4.51681 10.2557 4.55037C9.99321 4.36019 8.95984 3.53606 8.95984 2.50311C8.95984 1.34709 10.2598 0.452114 10.3131 0.414823C10.4238 0.340242 10.5714 0.340242 10.6821 0.414823C10.7354 0.452114 12.0353 1.34709 12.0353 2.50311C12.0353 3.53606 11.002 4.36019 10.7395 4.55037C11.8385 4.51681 12.4372 4.24459 13.0113 3.98355C13.6059 3.71506 14.2251 3.43538 15.4348 3.43538C16.4354 3.43538 17.0259 3.62556 17.5384 3.84185C17.2555 3.44656 16.7388 2.5665 16.989 1.72C17.317 0.601277 18.8261 0.0456446 18.8917 0.019541C19.0188 -0.0252079 19.1623 0.00835382 19.2484 0.10531C19.2894 0.153788 20.29 1.32472 19.9619 2.43971C19.6708 3.42046 18.4734 3.97236 18.1412 4.10661C18.6825 4.34154 19.3058 4.55037 20.3761 4.55037C20.7165 4.55037 20.9912 4.80022 20.9912 5.10973C20.9912 5.41925 20.7288 5.66909 20.3884 5.66909Z" fill="#333333"/>
<path d="M0.623762 13.7761C1.69404 13.7761 2.31734 13.5673 2.85863 13.3323C2.52647 13.1981 1.32908 12.6462 1.03793 11.6654C0.709877 10.5467 1.71044 9.3795 1.75145 9.33102C1.83756 9.23406 1.98108 9.2005 2.10821 9.24525C2.17382 9.26762 3.68286 9.82699 4.01092 10.9457C4.26106 11.7959 3.74437 12.6723 3.46143 13.0676C3.97401 12.8513 4.56451 12.6611 5.56507 12.6611C6.77477 12.6611 7.38987 12.9408 7.98447 13.2093C8.56266 13.4703 9.16136 13.7425 10.2644 13.7761C10.002 13.5859 8.96863 12.7618 8.96863 11.7288C8.96863 10.5728 10.2685 9.67782 10.3219 9.64053C10.4326 9.56595 10.5802 9.56595 10.6909 9.64053C10.7442 9.67782 12.0441 10.5728 12.0441 11.7288C12.0441 12.7618 11.0108 13.5859 10.7483 13.7761C11.8473 13.7425 12.446 13.4703 13.0201 13.2093C13.6147 12.9408 14.2339 12.6611 15.4436 12.6611C16.4442 12.6611 17.0347 12.8513 17.5472 13.0676C17.2643 12.6723 16.7476 11.7922 16.9977 10.9457C17.3258 9.82699 18.8348 9.27135 18.9005 9.24525C19.0276 9.2005 19.1711 9.23406 19.2572 9.33102C19.2982 9.3795 20.2988 10.5504 19.9707 11.6654C19.6796 12.6462 18.4822 13.1981 18.15 13.3323C18.6913 13.5673 19.3146 13.7761 20.3849 13.7761C20.7253 13.7761 21 14.0259 21 14.3354C21 14.645 20.7253 14.8948 20.3849 14.8948C18.8348 14.8948 17.9942 14.5144 17.3176 14.2087C16.764 13.9588 16.3662 13.7761 15.4436 13.7761C15.3288 13.7761 15.2222 13.7798 15.1196 13.7835C15.5543 13.9775 16.5631 14.5107 16.8255 15.402C17.1536 16.5207 16.153 17.6879 16.112 17.7364C16.0505 17.8035 15.9644 17.8445 15.8701 17.8445C15.8332 17.8445 15.7921 17.8371 15.7552 17.8259C15.6896 17.8035 14.1806 17.2441 13.8525 16.1254C13.5655 15.1558 14.2831 14.1453 14.5045 13.8656C14.156 13.9439 13.8853 14.0632 13.5655 14.2087C12.9258 14.4995 12.1343 14.8538 10.736 14.8911C10.9821 15.0701 12.04 15.9017 12.04 16.9458C12.04 18.1018 10.7401 18.9968 10.6868 19.0341C10.6335 19.0714 10.5679 19.09 10.5023 19.09C10.4367 19.09 10.3711 19.0714 10.3177 19.0341C10.2644 18.9968 8.96453 18.1018 8.96453 16.9458C8.96453 15.9017 10.0225 15.0701 10.2685 14.8911C8.86611 14.8538 8.07468 14.4958 7.43088 14.2049C7.11102 14.0595 6.84448 13.9402 6.49592 13.8619C6.71736 14.1415 7.43498 15.1521 7.14793 16.1217C6.81988 17.2404 5.31083 17.796 5.24522 17.8221C5.20831 17.8371 5.17141 17.8408 5.1304 17.8408C5.04018 17.8408 4.94997 17.8035 4.88846 17.7326C4.84745 17.6842 3.84689 16.5132 4.17494 15.3982C4.43739 14.5107 5.44615 13.9737 5.88082 13.7798C5.77831 13.7761 5.67169 13.7724 5.55687 13.7724C4.63422 13.7724 4.23645 13.9513 3.68286 14.2049C3.00625 14.5107 2.16562 14.8911 0.615561 14.8911C0.275204 14.8911 0.000457764 14.6412 0.000457764 14.3317C0.000457764 14.0222 0.283407 13.7761 0.623762 13.7761Z" fill="#333333"/>
</svg>
