<svg width="18" height="22" viewBox="0 0 18 22" fill="none" xmlns="http://www.w3.org/2000/svg">
<g clip-path="url(#clip0)">
<path d="M1.03849 19.8745C1.30515 18.7401 2.30515 17.9151 3.46626 17.9151H5.8996L6.66071 15.7609C5.44404 14.976 4.63293 13.6125 4.57182 12.0542L4.56071 11.7219C-1.9504 9.79688 -1.32818 4.4974 5.80515 3.09375L5.93293 1.74167C6.02738 0.750521 6.82738 0 7.7996 0H10.2052C11.1718 0 11.9774 0.750521 12.0718 1.74167L12.1996 3.09948C13.7218 3.40313 15.4996 4.01042 16.6829 5.05312C18.994 7.08698 18.294 10.2839 13.444 11.7219C13.4385 11.8307 13.4385 11.9396 13.4329 12.0542C13.3774 13.5953 12.5829 14.9646 11.344 15.7609L12.1052 17.9151H14.5385C15.6996 17.9151 16.694 18.7344 16.9663 19.8745L17.2774 21.2036C17.3607 21.5474 17.1552 21.8969 16.8163 21.9828C16.4829 22.0688 16.144 21.8568 16.0607 21.5073L15.7496 20.1839C15.6107 19.6109 15.1107 19.2099 14.5385 19.2099H13.9607V21.3583C13.9607 21.7135 13.6829 22 13.3329 22C12.9885 22 12.7107 21.7135 12.7107 21.3583V19.2099H11.8996C10.2274 20.5849 7.77738 20.5849 6.10515 19.2099H5.29404V21.3583C5.29404 21.7135 5.01626 22 4.67182 22C4.32738 22 4.0496 21.7135 4.0496 21.3583V19.2099H3.47182C2.8996 19.2099 2.3996 19.6109 2.26071 20.1839L1.9496 21.5073C1.86627 21.851 1.53293 22.0688 1.19404 21.9828C0.86071 21.8969 0.649599 21.5531 0.732933 21.2036L1.03849 19.8745ZM10.8218 1.86771C10.7885 1.53542 10.5218 1.28906 10.1996 1.28906H7.79404C7.47182 1.28906 7.20515 1.54115 7.17182 1.86771L7.07182 2.89896C8.3496 2.75573 9.6496 2.75573 10.9163 2.89896L10.8218 1.86771ZM15.8718 6.03281C15.0274 5.28802 13.644 4.69792 11.9718 4.36562C10.2218 4.01615 8.26626 3.9875 6.47182 4.27969C4.93293 4.53177 3.56071 5.02448 2.61627 5.66042C0.021822 7.41354 1.5496 9.36146 4.4996 10.3583L4.37182 6.89792C4.36071 6.59427 4.56071 6.31927 4.84404 6.25052C7.55515 5.55156 10.4274 5.55156 13.1385 6.25052C13.4496 6.325 13.6496 6.62865 13.6163 6.94948C13.5774 7.90625 13.694 4.86406 13.4885 10.3583C15.9996 9.51615 17.8607 7.78594 15.8718 6.03281ZM12.1829 12.0083C12.2385 10.4844 12.2996 8.8974 12.3552 7.37917C10.1496 6.88646 7.8496 6.88646 5.64404 7.37917C5.66071 7.90052 5.79404 11.4641 5.81626 12.0083C5.90515 14.3573 8.2496 15.8068 10.2829 14.8901C10.3218 14.8729 10.344 14.8615 10.3663 14.85C11.4052 14.3458 12.1329 13.2802 12.1829 12.0083ZM10.9274 18.3448L10.1996 16.2823C9.41626 16.5057 8.58293 16.5057 7.7996 16.2823L7.07182 18.3448C8.22738 19.1469 9.77182 19.1526 10.9274 18.3448Z" fill="#333333"/>
</g>
<defs>
<clipPath id="clip0">
<rect width="18" height="22" fill="white" transform="matrix(-1 0 0 1 18 0)"/>
</clipPath>
</defs>
</svg>
