<svg width="17" height="16" viewBox="0 0 17 16" fill="none" xmlns="http://www.w3.org/2000/svg">
<path d="M13.177 0.5H7.98942C7.66036 0.5 7.34678 0.62999 7.11451 0.859385L0.362936 7.5233C-0.120979 8.0012 -0.120979 8.77732 0.362936 9.25523L5.55049 14.3784C6.03441 14.8563 6.82029 14.8563 7.30033 14.3784L14.0519 7.71064C14.2842 7.48124 14.4158 7.16774 14.4158 6.84276V1.72344C14.4158 1.04672 13.8622 0.5 13.177 0.5ZM11.009 4.78203C10.498 4.78203 10.0799 4.36912 10.0799 3.86445C10.0799 3.35979 10.498 2.94688 11.009 2.94688C11.5201 2.94688 11.9382 3.35979 11.9382 3.86445C11.9382 4.36912 11.5201 4.78203 11.009 4.78203Z" fill="#333333"/>
<path d="M15.1276 1.81763V7.51044C15.1276 7.79335 15.0153 8.06481 14.8102 8.26361L7.9502 15.0384L8.05472 15.1416C8.53863 15.6195 9.32451 15.6195 9.80455 15.1416L15.9987 9.02444C16.2309 8.79504 16.3626 8.48536 16.3626 8.16039V3.04106C16.3664 2.36435 15.8128 1.81763 15.1276 1.81763Z" fill="#333333"/>
</svg>
