<svg width="8" height="16" viewBox="0 0 8 16" fill="none" xmlns="http://www.w3.org/2000/svg">
<path fill-rule="evenodd" clip-rule="evenodd" d="M1.69536 8.02462V15.8031C1.69536 15.9015 1.80132 16 1.90728 16H5.03311C5.13907 16 5.24503 15.9015 5.24503 15.8031V7.92615H7.52318C7.62914 7.92615 7.7351 7.82769 7.7351 7.72923L7.94702 5.36615C7.94702 5.26769 7.84106 5.16923 7.7351 5.16923H5.24503V3.49538C5.24503 3.10154 5.61589 2.75692 6.03973 2.75692H7.78808C7.89404 2.75692 8 2.65846 8 2.56V0.196923C8 0.0984614 7.89404 0 7.78808 0H4.87417C3.12583 0 1.74834 1.28 1.74834 2.90462V5.21846H0.211921C0.105961 5.21846 0 5.31692 0 5.41538V7.77846C0 7.87692 0.105961 7.97538 0.211921 7.97538H1.69536V8.02462Z" fill="black"/>
</svg>
