<svg width="20" height="20" viewBox="0 0 20 20" fill="none" xmlns="http://www.w3.org/2000/svg">
<path d="M15.2514 3.68715C14.581 3.68715 14.0782 4.18994 14.0782 4.86034C14.0782 5.53073 14.581 6.03352 15.2514 6.03352C15.9218 6.03352 16.4246 5.53073 16.4246 4.86034C16.4246 4.18994 15.9218 3.68715 15.2514 3.68715ZM10.0559 5.19553C7.31844 5.19553 5.13967 7.43017 5.13967 10.1117C5.13967 12.7933 7.3743 15.0279 10.0559 15.0279C12.7374 15.0279 14.9721 12.7933 14.9721 10.1117C14.9721 7.43017 12.7933 5.19553 10.0559 5.19553ZM10.0559 13.2961C8.32402 13.2961 6.87151 11.8994 6.87151 10.1117C6.87151 8.37989 8.26816 6.92737 10.0559 6.92737C11.7877 6.92737 13.2402 8.32402 13.2402 10.1117C13.1844 11.8994 11.7877 13.2961 10.0559 13.2961ZM20 6.03352C20 2.68156 17.3184 0 13.9665 0H6.03352C2.68156 0 0 2.68156 0 6.03352V13.9665C0 17.3184 2.68156 20 6.03352 20H13.9665C17.3184 20 20 17.3184 20 13.9665V6.03352ZM18.1006 13.9665C18.1006 16.257 16.257 18.1006 13.9665 18.1006H6.03352C3.74302 18.1006 1.89944 16.257 1.89944 13.9665V6.03352C1.89944 3.74302 3.74302 1.89944 6.03352 1.89944H13.9665C16.257 1.89944 18.1006 3.74302 18.1006 6.03352V13.9665Z" fill="#333033"/>
</svg>
