<svg width="18" height="22" viewBox="0 0 18 22" fill="none" xmlns="http://www.w3.org/2000/svg">
<g clip-path="url(#clip0)">
<path d="M1.03898 19.8745C1.30564 18.7401 2.30564 17.9151 3.46675 17.9151H5.90009L6.6612 15.7609C5.44453 14.976 4.63342 13.6125 4.57231 12.0542L4.5612 11.7219C-1.94991 9.79688 -1.32769 4.4974 5.80564 3.09375L5.93342 1.74167C6.02786 0.750521 6.82786 0 7.80009 0H10.2056C11.1723 0 11.9779 0.750521 12.0723 1.74167L12.2001 3.09948C13.7223 3.40313 15.5001 4.01042 16.6834 5.05312C18.9945 7.08698 18.2945 10.2839 13.4445 11.7219C13.439 11.8307 13.439 11.9396 13.4334 12.0542C13.3779 13.5953 12.5834 14.9646 11.3445 15.7609L12.1056 17.9151H14.539C15.7001 17.9151 16.6945 18.7344 16.9668 19.8745L17.2779 21.2036C17.3612 21.5474 17.1556 21.8969 16.8168 21.9828C16.4834 22.0688 16.1445 21.8568 16.0612 21.5073L15.7501 20.1839C15.6112 19.6109 15.1112 19.2099 14.539 19.2099H13.9612V21.3583C13.9612 21.7135 13.6834 22 13.3334 22C12.989 22 12.7112 21.7135 12.7112 21.3583V19.2099H11.9001C10.2279 20.5849 7.77786 20.5849 6.10564 19.2099H5.29453V21.3583C5.29453 21.7135 5.01675 22 4.67231 22C4.32786 22 4.05009 21.7135 4.05009 21.3583V19.2099H3.47231C2.90009 19.2099 2.40009 19.6109 2.2612 20.1839L1.95009 21.5073C1.86675 21.851 1.53342 22.0688 1.19453 21.9828C0.861198 21.8969 0.650087 21.5531 0.733421 21.2036L1.03898 19.8745ZM10.8223 1.86771C10.789 1.53542 10.5223 1.28906 10.2001 1.28906H7.79453C7.47231 1.28906 7.20564 1.54115 7.17231 1.86771L7.07231 2.89896C8.35009 2.75573 9.65009 2.75573 10.9168 2.89896L10.8223 1.86771ZM15.8723 6.03281C15.0279 5.28802 13.6445 4.69792 11.9723 4.36562C10.2223 4.01615 8.26675 3.9875 6.47231 4.27969C4.93342 4.53177 3.5612 5.02448 2.61675 5.66042C0.0223103 7.41354 1.55009 9.36146 4.50009 10.3583L4.37231 6.89792C4.3612 6.59427 4.5612 6.31927 4.84453 6.25052C7.55564 5.55156 10.4279 5.55156 13.139 6.25052C13.4501 6.325 13.6501 6.62865 13.6168 6.94948C13.5779 7.90625 13.6945 4.86406 13.489 10.3583C16.0001 9.51615 17.8612 7.78594 15.8723 6.03281ZM12.1834 12.0083C12.239 10.4844 12.3001 8.8974 12.3556 7.37917C10.1501 6.88646 7.85009 6.88646 5.64453 7.37917C5.6612 7.90052 5.79453 11.4641 5.81675 12.0083C5.90564 14.3573 8.25009 15.8068 10.2834 14.8901C10.3223 14.8729 10.3445 14.8615 10.3668 14.85C11.4056 14.3458 12.1334 13.2802 12.1834 12.0083ZM10.9279 18.3448L10.2001 16.2823C9.41675 16.5057 8.58342 16.5057 7.80009 16.2823L7.07231 18.3448C8.22786 19.1469 9.77231 19.1526 10.9279 18.3448Z" fill="#333333"/>
</g>
<defs>
<clipPath id="clip0">
<rect width="18" height="22" fill="white" transform="matrix(-1 0 0 1 18 0)"/>
</clipPath>
</defs>
</svg>
