<?xml version="1.0" encoding="utf-8"?>
<!-- Generator: Adobe Illustrator 25.2.3, SVG Export Plug-In . SVG Version: 6.00 Build 0)  -->
<svg version="1.1" id="Layer_1" xmlns="http://www.w3.org/2000/svg" xmlns:xlink="http://www.w3.org/1999/xlink" x="0px" y="0px"
	 viewBox="0 0 39 39" style="enable-background:new 0 0 39 39;" xml:space="preserve">
<style type="text/css">
	.st0{fill:none;stroke:#EE4037;stroke-width:2;stroke-opacity:0.2;}
	.st1{fill:#EE4037;}
</style>
<path class="st0" d="M35,19.5c0,8-6.7,14.5-15,14.5S5,27.4,5,19.5C5,11.5,11.7,5,20,5S35,11.5,35,19.5z"/>
<path class="st1" d="M23.9,13c-1.6,0-3,1-3.7,2.4c-0.8-1.4-2.2-2.3-3.8-2.3c-2.4,0-4.4,2.2-4.3,4.9c0,0.5,0.1,1,0.3,1.5
	c0.4,1.5,2.8,4,5.1,6c1.1,1,3,2.3,3,2.3c0.8-0.5,1.8-1.4,2.9-2.4c2.2-2,4.6-4.6,4.9-6.1c0.2-0.5,0.2-1,0.2-1.5
	C28.3,15.1,26.3,13,23.9,13z"/>
</svg>
