<svg width="39" height="39" viewBox="0 0 39 39" fill="none" xmlns="http://www.w3.org/2000/svg">
<path d="M34.9878 19.461C34.9878 27.4394 28.3022 33.961 19.9878 33.961C11.6734 33.961 4.98779 27.4394 4.98779 19.461C4.98779 11.4825 11.6734 4.96097 19.9878 4.96097C28.3022 4.96097 34.9878 11.4825 34.9878 19.461Z" stroke="#EE4037" stroke-opacity="0.2" stroke-width="2"/>
<path d="M22.9011 13.0123C21.2931 13.0123 19.9444 13.9847 19.1663 15.3948C18.3882 13.9847 16.9877 13.0609 15.3796 13.1095C12.9935 13.1095 11.0224 15.2976 11.0742 17.9719C11.0742 18.5068 11.178 18.993 11.3336 19.4793C11.6967 20.9866 14.1347 23.5151 16.4171 25.5087C17.5064 26.4812 19.3738 27.8426 19.3738 27.8426C20.1519 27.3078 21.1893 26.4325 22.2786 25.4114C24.5091 23.3692 26.8953 20.7921 27.2065 19.2848C27.3621 18.7985 27.414 18.3123 27.414 17.7774C27.3102 15.1031 25.3391 12.9636 22.9011 13.0123Z" fill="#EE4037" fill-opacity="0.2"/>
</svg>
