<svg width="45" height="45" viewBox="0 0 45 45" fill="none" xmlns="http://www.w3.org/2000/svg">
<circle cx="22.5" cy="22.5" r="22.5" fill="#F9BA84" fill-opacity="0.2"/>
<path d="M22.5015 13C26.0841 13 29 15.9626 29 19.6028C29 24.1789 22.4927 31.997 22.4927 31.997C22.4927 31.997 16 23.9531 16 19.6028C16 15.9626 18.9159 13 22.5015 13ZM20.539 21.5372C21.0801 22.087 21.7908 22.3603 22.5015 22.3603C23.2121 22.3603 23.9228 22.087 24.4639 21.5372C25.546 20.4378 25.546 18.6519 24.4639 17.5524C23.9404 17.0205 23.2443 16.7263 22.5015 16.7263C21.7586 16.7263 21.0655 17.0205 20.539 17.5524C19.4569 18.6519 19.4569 20.4378 20.539 21.5372Z" fill="black"/>
</svg>
