<svg width="12" height="12" viewBox="0 0 12 12" fill="none" xmlns="http://www.w3.org/2000/svg">
<path d="M11.9689 4.59153C11.8914 4.34772 11.6754 4.17255 11.4194 4.14888L7.95561 3.83168L6.58653 0.600539C6.48556 0.363825 6.25542 0.209961 5.99945 0.209961C5.74348 0.209961 5.51335 0.363825 5.41237 0.600539L4.04329 3.83168L0.579495 4.14888C0.325875 4.17255 0.109828 4.34535 0.0299845 4.59153C-0.0498588 4.83535 0.0229395 5.1052 0.215503 5.27564L2.8339 7.5907L2.06364 11.0159C2.00728 11.2669 2.10356 11.5296 2.31257 11.6787C2.42529 11.7592 2.55444 11.8018 2.68595 11.8018C2.79867 11.8018 2.91139 11.7711 3.01237 11.7095L5.99945 9.91049L8.98653 11.7095C9.20493 11.8421 9.47968 11.8302 9.68868 11.6787C9.89534 11.5272 9.99397 11.2669 9.93761 11.0159L9.165 7.58833L11.7834 5.27327C11.9736 5.1052 12.0464 4.83772 11.9689 4.59153Z" fill="#E5E5E5"/>
</svg>
