<svg width="18" height="17" viewBox="0 0 18 17" fill="none" xmlns="http://www.w3.org/2000/svg">
<path d="M16.7806 15.0361H6.37467C6.08933 15.8865 5.28794 16.5 4.34085 16.5C3.39375 16.5 2.59237 15.8865 2.30702 15.0361H0.679965C0.303556 15.0361 0 14.7323 0 14.3497C0 13.973 0.303556 13.6693 0.679965 13.6693H2.30702C2.59237 12.8189 3.39375 12.2054 4.34085 12.2054C5.28794 12.2054 6.08933 12.8189 6.37467 13.6693H16.7745C17.1509 13.6693 17.4545 13.973 17.4545 14.3497C17.4605 14.7323 17.157 15.0361 16.7806 15.0361ZM4.34085 13.5721C3.9098 13.5721 3.56375 13.9244 3.56375 14.3497C3.56375 14.7809 3.91587 15.1333 4.34085 15.1333C4.76583 15.1333 5.12402 14.7809 5.12402 14.3497C5.12402 13.9244 4.7719 13.5721 4.34085 13.5721Z" fill="#E08433"/>
<path d="M16.7806 9.18034H15.1596C14.8742 10.0308 14.0728 10.6443 13.1258 10.6443C12.1787 10.6443 11.3773 10.0308 11.0919 9.18034H0.679965C0.303556 9.18034 0 8.87662 0 8.5C0 8.11732 0.303556 7.8136 0.679965 7.8136H11.0798C11.3651 6.96318 12.1665 6.34966 13.1136 6.34966C14.0607 6.34966 14.8621 6.96318 15.1474 7.8136H16.7684C17.1448 7.8136 17.4484 8.11732 17.4484 8.49393C17.4605 8.87662 17.157 9.18034 16.7806 9.18034ZM13.1197 7.7164C12.6886 7.7164 12.3365 8.06872 12.3365 8.5C12.3365 8.93129 12.6886 9.2836 13.1197 9.2836C13.5507 9.2836 13.8968 8.93129 13.8968 8.5C13.8968 8.06872 13.5507 7.7164 13.1197 7.7164Z" fill="#E08433"/>
<path d="M16.7806 3.3246H9.30095C9.01561 4.17502 8.21422 4.78853 7.26713 4.78853C6.32003 4.78853 5.51864 4.17502 5.2333 3.3246H0.679965C0.303556 3.3246 0 3.02087 0 2.64426C0 2.26765 0.303556 1.96392 0.679965 1.96392H5.22723C5.51257 1.1135 6.31396 0.499989 7.26105 0.499989C8.20815 0.499989 9.00954 1.1135 9.29488 1.96392H16.7684C17.1448 1.96392 17.4484 2.26765 17.4484 2.64426C17.4605 3.02087 17.157 3.3246 16.7806 3.3246ZM7.26713 1.86066C6.83608 1.86066 6.49002 2.21298 6.49002 2.63819C6.49002 3.06947 6.84215 3.42179 7.26713 3.42179C7.69817 3.42179 8.0503 3.06947 8.0503 2.64426C8.0503 2.21298 7.69817 1.86066 7.26713 1.86066Z" fill="#E08433"/>
</svg>
