<svg width="113" height="63" viewBox="0 0 113 63" fill="none" xmlns="http://www.w3.org/2000/svg">
<g clip-path="url(#clip0)">
<path d="M36.9366 20.9005C36.9366 17.855 36.5815 15.0483 35.8711 12.4806C35.1608 9.9128 34.0361 7.70332 32.5563 5.85213C31.0765 4.00095 29.2415 2.56777 26.933 1.49289C24.7428 0.537441 22.0791 0 19.001 0C16.3374 0 13.8512 0.537441 11.5427 1.55261C9.23415 2.56777 7.22158 4.06066 5.50498 5.91185C3.78837 7.82275 2.48612 10.0919 1.47983 12.8389C0.473546 15.5261 0 18.5716 0 21.9156V23.4682C0 26.3346 0.473546 29.0815 1.42064 31.5896C2.36773 34.0976 3.66998 36.2474 5.44578 38.0986C7.16239 39.9498 9.29335 41.3829 11.7795 42.3981C14.2656 43.4133 17.0477 43.9507 20.1849 43.9507C22.3159 43.9507 24.1509 43.7118 25.8675 43.2938C27.5249 42.8161 29.0639 42.219 30.3662 41.5024C31.6684 40.7858 32.8523 39.89 33.8586 38.9346C34.8649 37.9791 35.6936 37.0237 36.3447 36.0085L31.2541 31.0521C30.011 32.7242 28.472 33.9782 26.7554 34.9337C25.0388 35.8891 22.967 36.3668 20.6585 36.3668C19.0011 36.3668 17.5212 36.0682 16.219 35.4711C14.9167 34.8739 13.792 34.0976 12.8449 33.0825C11.8979 32.0673 11.1283 30.873 10.5956 29.4995C10.0037 28.1261 9.7077 26.5735 9.58932 24.9611H37.055V20.9005H36.9366ZM27.6433 18.0341H9.64851C10.0629 14.7498 11.1283 12.2417 12.6674 10.3905C14.2656 8.53934 16.3374 7.6436 18.9419 7.6436C20.4809 7.6436 21.7831 7.88246 22.9078 8.41991C23.9733 8.95735 24.8612 9.67393 25.5123 10.5697C26.2226 11.4654 26.6962 12.5403 27.0513 13.6749C27.3473 14.8692 27.5841 16.0635 27.6433 17.3175V18.0341Z" fill="white"/>
<path d="M49.367 43.2343H37.7651L61.9752 0.836182H73.5771L49.367 43.2343Z" fill="white"/>
<path d="M3.72918 63.0001C3.13724 63.0001 2.60451 62.8807 2.19015 62.7015C1.71661 62.5224 1.36145 62.2238 1.00629 61.9252C0.71032 61.5669 0.414353 61.2087 0.236773 60.7309C0.0591933 60.1935 0 59.7158 0 59.1783V58.8797C0 58.2826 0.118387 57.6854 0.295966 57.2077C0.473546 56.73 0.71032 56.2523 1.06548 55.9537C1.36145 55.5954 1.7758 55.3565 2.19015 55.1177C2.60451 54.9385 3.01886 54.8191 3.5516 54.8191C4.14353 54.8191 4.61708 54.9385 5.03143 55.1177C5.44578 55.2968 5.80094 55.5954 6.09691 55.894C6.39288 56.2523 6.57046 56.6703 6.68884 57.148C6.80723 57.6257 6.86642 58.1632 6.86642 58.7006V59.4769H1.7758C1.7758 59.7755 1.83499 60.0741 1.95338 60.3129C2.07177 60.5518 2.19015 60.7906 2.36773 60.9698C2.54531 61.1489 2.78208 61.3281 3.01886 61.3878C3.25563 61.5072 3.5516 61.5669 3.84756 61.5669C4.26192 61.5669 4.67627 61.5072 4.97224 61.3281C5.2682 61.1489 5.56417 60.9101 5.80094 60.6115L6.74804 61.5072C6.62965 61.6864 6.45207 61.8655 6.27449 62.0447C6.09691 62.2238 5.86014 62.403 5.62336 62.5224C5.38659 62.6418 5.09062 62.7613 4.79466 62.8807C4.49869 62.9404 4.14353 63.0001 3.72918 63.0001ZM3.5516 56.2523C3.07805 56.2523 2.6637 56.4314 2.36773 56.7897C2.07177 57.148 1.89419 57.6257 1.7758 58.2229H5.14982V58.1034C5.14982 57.8646 5.09062 57.6257 5.03143 57.4466C4.97224 57.2077 4.85385 57.0286 4.73546 56.8494C4.61708 56.6703 4.4395 56.5508 4.26192 56.4314C4.08434 56.312 3.84756 56.2523 3.5516 56.2523Z" fill="white"/>
<path d="M9.88506 54.9387L9.94426 55.8344C10.2402 55.4761 10.5362 55.2372 10.9505 55.0581C11.3649 54.879 11.7792 54.7595 12.2528 54.7595C12.608 54.7595 12.9631 54.8192 13.2591 54.9387C13.555 55.0581 13.851 55.2372 14.0286 55.4164C14.2654 55.6553 14.4429 55.9538 14.5021 56.3121C14.6205 56.6704 14.6797 57.1481 14.6797 57.6856V62.7614H12.9039V57.6259C12.9039 57.3273 12.8447 57.1481 12.7855 56.9093C12.7263 56.7301 12.6671 56.551 12.5488 56.4316C12.4304 56.3121 12.312 56.2524 12.1344 56.1927C11.9568 56.133 11.7792 56.133 11.5425 56.133C11.1873 56.133 10.8913 56.1927 10.5954 56.3718C10.2994 56.551 10.1218 56.7899 9.94426 57.0884V62.7017H8.16846V54.9387H9.88506Z" fill="white"/>
<path d="M16.1597 58.82C16.1597 58.2229 16.2189 57.7452 16.3964 57.2077C16.574 56.73 16.8108 56.312 17.1068 55.9537C17.4027 55.5954 17.8171 55.2968 18.2314 55.1177C18.705 54.9385 19.1785 54.8191 19.7705 54.8191C20.3624 54.8191 20.8359 54.9385 21.3095 55.1177C21.783 55.2968 22.1382 55.5954 22.4342 55.9537C22.7301 56.312 22.9669 56.73 23.1445 57.2077C23.3221 57.6854 23.3813 58.2229 23.3813 58.82V58.9992C23.3813 59.5963 23.3221 60.1338 23.1445 60.6115C22.9669 61.0892 22.7301 61.5072 22.4342 61.8655C22.1382 62.2238 21.7238 62.5224 21.3095 62.7015C20.8359 62.8807 20.3624 63.0001 19.7705 63.0001C19.1785 63.0001 18.705 62.8807 18.2314 62.7015C17.7579 62.5224 17.4027 62.2238 17.1068 61.8655C16.8108 61.5072 16.574 61.0892 16.3964 60.6115C16.2189 60.1338 16.1597 59.5963 16.1597 58.9992V58.82ZM17.8763 58.9992C17.8763 59.3575 17.9355 59.7158 17.9947 60.0143C18.0539 60.3129 18.1722 60.6115 18.3498 60.8504C18.5274 61.0892 18.705 61.2684 18.9418 61.3878C19.1785 61.5072 19.4745 61.5669 19.7705 61.5669C20.0664 61.5669 20.3624 61.5072 20.5992 61.3878C20.8359 61.2684 21.0135 61.0892 21.1911 60.8504C21.3687 60.6115 21.4279 60.3129 21.5463 60.0143C21.6055 59.7158 21.6646 59.3575 21.6646 58.9992V58.82C21.6646 58.4617 21.6055 58.1632 21.5463 57.8049C21.4871 57.5063 21.3687 57.2077 21.1911 56.9689C21.0135 56.73 20.8359 56.5508 20.5992 56.4314C20.3624 56.312 20.0664 56.1925 19.7705 56.1925C19.4153 56.1925 19.1785 56.2523 18.9418 56.4314C18.705 56.5508 18.5274 56.7897 18.3498 56.9689C18.1722 57.2077 18.0539 57.5063 17.9947 57.8049C17.9355 58.1034 17.8763 58.4617 17.8763 58.82V58.9992Z" fill="white"/>
<path d="M27.1103 53.0276V54.9385H28.4717V56.2522H27.1103V60.6712C27.1103 60.8503 27.1103 60.9698 27.1695 61.0892C27.2287 61.2086 27.2879 61.2683 27.3471 61.3281C27.4062 61.3878 27.5246 61.4475 27.5838 61.4475C27.7022 61.4475 27.8206 61.5072 27.939 61.5072C28.0574 61.5072 28.1758 61.5072 28.2941 61.5072C28.4125 61.5072 28.4717 61.4475 28.5309 61.4475V62.8209C28.4125 62.8807 28.235 62.8807 28.0574 62.9404C27.8798 63.0001 27.643 63.0001 27.4062 63.0001C27.1103 63.0001 26.8735 62.9404 26.5775 62.8807C26.3408 62.8209 26.104 62.7015 25.9264 62.5224C25.7488 62.3432 25.6304 62.1044 25.5121 61.8655C25.3937 61.5669 25.3345 61.2683 25.3345 60.8503V56.3717H24.0322V54.9385H25.3345V53.0276H27.1103Z" fill="white"/>
<path d="M33.2668 63C32.6748 63 32.1421 62.8806 31.7277 62.7014C31.2542 62.5223 30.899 62.2237 30.5439 61.9251C30.2479 61.5668 29.9519 61.2085 29.7744 60.7308C29.5968 60.2531 29.5376 59.7753 29.5376 59.2379V58.9393C29.5376 58.3422 29.656 57.745 29.8336 57.2673C30.0111 56.7896 30.2479 56.3118 30.6031 56.0133C30.899 55.655 31.3134 55.4161 31.7277 55.1772C32.1421 54.9981 32.6156 54.8787 33.1484 54.8787C33.7403 54.8787 34.2139 54.9981 34.6282 55.1772C35.0426 55.3564 35.3977 55.655 35.6937 55.9535C35.9897 56.3118 36.1672 56.7298 36.2856 57.2076C36.404 57.6853 36.4632 58.2227 36.4632 58.7602V59.5365H31.3726C31.3726 59.8351 31.4318 60.1336 31.5502 60.3725C31.6686 60.6114 31.7869 60.8502 31.9645 61.0294C32.1421 61.2085 32.3789 61.3877 32.6156 61.4474C32.8524 61.5668 33.1484 61.6265 33.4444 61.6265C33.8587 61.6265 34.2731 61.5668 34.569 61.3877C34.865 61.2085 35.161 60.9697 35.3977 60.6711L36.3448 61.5668C36.2264 61.746 36.0489 61.9251 35.8713 62.1043C35.6937 62.2834 35.4569 62.4626 35.2202 62.582C34.9834 62.7014 34.6874 62.8208 34.3914 62.9403C34.0955 63.0597 33.6219 63 33.2668 63ZM33.03 56.2521C32.5565 56.2521 32.1421 56.4313 31.8461 56.7896C31.5502 57.1479 31.3726 57.6256 31.2542 58.2227H34.6282V58.1033C34.6282 57.8644 34.569 57.6256 34.5098 57.4464C34.4506 57.2076 34.3323 57.0284 34.2139 56.8493C34.0955 56.6701 33.9179 56.5507 33.7403 56.4313C33.5627 56.3118 33.326 56.2521 33.03 56.2521Z" fill="white"/>
<path d="M40.962 61.5668C41.1987 61.5668 41.3763 61.5071 41.5539 61.4474C41.7315 61.3877 41.9091 61.2682 42.0275 61.1488C42.1458 61.0294 42.2642 60.9099 42.3826 60.7308C42.4418 60.5516 42.501 60.3725 42.501 60.1933H44.1584C44.1584 60.5516 44.04 60.9099 43.8624 61.2682C43.6849 61.6265 43.4481 61.9251 43.1521 62.164C42.8562 62.4028 42.5602 62.582 42.1458 62.7611C41.7907 62.8805 41.3763 63 40.9028 63C40.3108 63 39.7781 62.8805 39.3046 62.7014C38.831 62.5223 38.4759 62.2237 38.1799 61.8654C37.8839 61.5071 37.6472 61.0891 37.5288 60.6114C37.4104 60.1336 37.292 59.5962 37.292 59.0588V58.8199C37.292 58.2824 37.3512 57.745 37.5288 57.2673C37.6472 56.7896 37.8839 56.3716 38.1799 56.0133C38.4759 55.655 38.831 55.3564 39.3046 55.1772C39.7189 54.9981 40.2517 54.8787 40.8436 54.8787C41.3171 54.8787 41.7315 54.9384 42.1458 55.1175C42.5602 55.237 42.8562 55.4758 43.1521 55.7147C43.4481 55.9535 43.6257 56.3118 43.8033 56.6701C43.9808 57.0284 44.04 57.4464 44.04 57.8644H42.3826C42.3826 57.6853 42.3234 57.4464 42.2642 57.2673C42.205 57.0881 42.0866 56.909 41.9683 56.7896C41.8499 56.6701 41.6723 56.5507 41.4947 56.4313C41.3171 56.3716 41.0804 56.3118 40.8436 56.3118C40.4884 56.3118 40.1925 56.3715 39.9557 56.5507C39.7189 56.6701 39.5413 56.909 39.4229 57.1479C39.3046 57.3867 39.1862 57.6853 39.127 57.9839C39.0678 58.2824 39.0678 58.581 39.0678 58.9393V59.1782C39.0678 59.4768 39.0678 59.8351 39.127 60.1336C39.1862 60.4322 39.2454 60.7308 39.4229 60.9696C39.5413 61.2085 39.7189 61.3877 39.9557 61.5668C40.3108 61.5071 40.6068 61.5668 40.962 61.5668Z" fill="white"/>
<path d="M50.1961 62.8211C50.1369 62.7017 50.1369 62.642 50.0777 62.4628C50.0186 62.3434 50.0186 62.224 50.0186 62.0448C49.9002 62.1643 49.7818 62.2837 49.6042 62.4031C49.4858 62.5225 49.3082 62.5823 49.1307 62.7017C48.9531 62.7614 48.7755 62.8211 48.5979 62.8808C48.4203 62.9406 48.1836 62.9406 47.9468 62.9406C47.5324 62.9406 47.1773 62.8808 46.8813 62.7614C46.5261 62.642 46.2894 62.4628 46.0526 62.2837C45.8158 62.0448 45.6383 61.806 45.5199 61.5074C45.4015 61.2088 45.3423 60.9102 45.3423 60.5519C45.3423 60.1339 45.4015 59.7756 45.5791 59.4173C45.7566 59.1188 45.9934 58.8202 46.2894 58.5813C46.5853 58.3425 46.9405 58.223 47.4141 58.1036C47.8284 57.9842 48.3611 57.9244 48.8939 57.9244H50.0186V57.387C50.0186 56.969 49.9002 56.6704 49.6634 56.4316C49.4266 56.1927 49.0715 56.0733 48.6571 56.0733C48.4203 56.0733 48.2428 56.0733 48.0652 56.133C47.8876 56.1927 47.7692 56.2524 47.6508 56.3718C47.5324 56.4913 47.4141 56.551 47.3549 56.7301C47.2957 56.8496 47.2365 57.0287 47.2365 57.1481H45.4607C45.4607 56.8496 45.5199 56.551 45.6974 56.2524C45.875 55.9538 46.0526 55.715 46.3486 55.4761C46.6445 55.2372 46.9405 55.0581 47.3549 54.9387C47.7692 54.8192 48.1836 54.7595 48.7163 54.7595C49.1307 54.7595 49.545 54.8192 49.9594 54.9387C50.3145 55.0581 50.6697 55.2372 50.9065 55.4761C51.2024 55.715 51.38 55.9538 51.5576 56.3121C51.7352 56.6704 51.7944 57.0287 51.7944 57.5064V61.0297C51.7944 61.7462 51.9127 62.2837 52.0903 62.7017V62.8211H50.1961ZM48.2428 61.5671C48.4203 61.5671 48.6571 61.5671 48.8347 61.5074C49.0123 61.4477 49.1899 61.388 49.3082 61.2685C49.4266 61.2088 49.6042 61.0894 49.6634 60.9699C49.7818 60.8505 49.841 60.7311 49.9002 60.6117V59.1188H48.9531C48.3019 59.1188 47.8284 59.2382 47.4732 59.4771C47.1181 59.7159 46.9997 60.0145 46.9997 60.4325C46.9997 60.6116 46.9997 60.7311 47.0589 60.8505C47.1181 60.9699 47.1773 61.0894 47.2957 61.2088C47.4141 61.3282 47.5324 61.388 47.71 61.4477C47.8876 61.5671 48.0652 61.5671 48.2428 61.5671Z" fill="white"/>
<path d="M54.9313 62.8209H52.8003L57.299 54.9385H59.43L54.9313 62.8209Z" fill="white"/>
<path d="M61.9163 54.9384L61.9755 55.8342C62.2715 55.4759 62.5674 55.237 62.9818 55.0579C63.3961 54.8787 63.8105 54.7593 64.284 54.7593C64.6392 54.7593 64.9944 54.819 65.2903 54.9384C65.5863 55.0579 65.8823 55.237 66.0598 55.4162C66.2966 55.655 66.415 55.9536 66.5334 56.3119C66.6518 56.6702 66.711 57.1479 66.711 57.6853V62.7612H64.9352V57.6256C64.9352 57.3271 64.876 57.1479 64.8168 56.909C64.7576 56.7299 64.6984 56.5507 64.58 56.4313C64.4616 56.3119 64.3432 56.2522 64.1657 56.1925C63.9881 56.1327 63.8105 56.1327 63.5737 56.1327C63.2186 56.1327 62.9226 56.1925 62.6266 56.3716C62.3307 56.5507 62.1531 56.7896 61.9755 57.0882V62.7015H60.1997V54.9384H61.9163Z" fill="white"/>
<path d="M73.1629 62.8209C73.1037 62.7015 73.1037 62.6417 73.0445 62.4626C72.9854 62.3432 72.9854 62.2237 72.9854 62.0446C72.867 62.164 72.7486 62.2834 72.571 62.4029C72.4526 62.5223 72.275 62.582 72.0975 62.7015C71.9199 62.7612 71.7423 62.8209 71.5647 62.8806C71.3871 62.9403 71.1504 62.9403 70.9136 62.9403C70.4992 62.9403 70.1441 62.8806 69.8481 62.7612C69.4929 62.6417 69.2562 62.4626 69.0194 62.2834C68.7826 62.0446 68.605 61.8057 68.4867 61.5071C68.3683 61.2086 68.3091 60.91 68.3091 60.5517C68.3091 60.1337 68.3683 59.7754 68.5459 59.4171C68.7234 59.1185 68.9602 58.8199 69.2562 58.5811C69.5521 58.3422 69.9073 58.2228 70.3808 58.1034C70.7952 57.9839 71.3279 57.9242 71.8607 57.9242H72.9854V57.3868C72.9854 56.9688 72.867 56.6702 72.6302 56.4313C72.3934 56.1925 72.0383 56.073 71.6239 56.073C71.4463 56.073 71.2096 56.073 71.032 56.1327C70.8544 56.1925 70.736 56.2522 70.6176 56.3716C70.4992 56.491 70.3808 56.5507 70.3217 56.7299C70.2625 56.8493 70.2033 57.0285 70.2033 57.1479H68.4275C68.4275 56.8493 68.4867 56.5507 68.6642 56.2522C68.8418 55.9536 69.0194 55.7147 69.3154 55.4759C69.6113 55.237 69.9073 55.0579 70.3217 54.9384C70.736 54.819 71.1504 54.7593 71.6831 54.7593C72.0975 54.7593 72.5118 54.819 72.9262 54.9384C73.2813 55.0579 73.6365 55.237 73.8733 55.4759C74.1692 55.7147 74.3468 55.9536 74.5244 56.3119C74.702 56.6702 74.7612 57.0285 74.7612 57.5062V61.0294C74.7612 61.746 74.8795 62.2834 75.0571 62.7015V62.8209H73.1629ZM71.2687 61.5669C71.4463 61.5669 71.6831 61.5669 71.8607 61.5071C72.0383 61.4474 72.2158 61.3877 72.3342 61.2683C72.4526 61.2086 72.571 61.0891 72.6894 60.9697C72.8078 60.8503 72.867 60.7308 72.9262 60.6114V59.1185H71.9791C71.3279 59.1185 70.8544 59.2379 70.4992 59.4768C70.1441 59.7157 70.0257 60.0143 70.0257 60.4323C70.0257 60.6114 70.0257 60.7308 70.0849 60.8503C70.1441 60.9697 70.2033 61.0891 70.3217 61.2086C70.44 61.328 70.5584 61.3877 70.736 61.4474C70.8544 61.5669 71.032 61.5669 71.2687 61.5669Z" fill="white"/>
<path d="M78.727 53.0276V54.9385H80.0884V56.2522H78.727V60.6712C78.727 60.8503 78.727 60.9698 78.7862 61.0892C78.8454 61.2086 78.9046 61.2683 78.9637 61.328C79.0229 61.3878 79.1413 61.4475 79.2005 61.4475C79.3189 61.4475 79.4373 61.5072 79.5557 61.5072C79.6741 61.5072 79.7925 61.5072 79.9108 61.5072C80.0292 61.5072 80.0884 61.4475 80.1476 61.4475V62.8209C80.0292 62.8807 79.8517 62.8807 79.6741 62.9404C79.4965 63.0001 79.2597 63.0001 79.0229 63.0001C78.727 63.0001 78.4902 62.9404 78.1942 62.8807C77.9575 62.8209 77.7207 62.7015 77.5431 62.5224C77.3655 62.3432 77.2471 62.1044 77.1288 61.8655C77.0104 61.5669 76.9512 61.2683 76.9512 60.8503V56.3717H75.6489V54.9385H76.9512V53.0276H78.727Z" fill="white"/>
<path d="M86.1858 62.0446C85.949 62.3432 85.653 62.5821 85.2979 62.7015C84.9427 62.8807 84.5284 62.9404 83.9956 62.9404C83.5813 62.9404 83.2853 62.8807 82.9301 62.7612C82.575 62.6418 82.3382 62.4626 82.1014 62.2238C81.8647 61.9849 81.6871 61.6863 81.5687 61.328C81.4503 60.9698 81.3911 60.492 81.3911 60.0143V54.9385H83.1669V60.074C83.1669 60.3726 83.2261 60.6115 83.2853 60.7906C83.3445 60.9698 83.4629 61.1489 83.5813 61.2683C83.6997 61.3878 83.818 61.4475 83.9956 61.5072C84.1732 61.5669 84.2916 61.5669 84.4692 61.5669C84.9427 61.5669 85.2979 61.5072 85.5938 61.328C85.8898 61.1489 86.0674 60.91 86.245 60.6712V54.9385H88.0208V62.8209H86.3634L86.1858 62.0446Z" fill="white"/>
<path d="M93.7621 56.5507C93.6437 56.5507 93.5253 56.491 93.4069 56.491C93.2885 56.491 93.1701 56.491 93.0518 56.491C92.6374 56.491 92.2822 56.5507 92.0455 56.7299C91.8087 56.909 91.5719 57.1479 91.4535 57.3868V62.7612H89.6777V54.9384H91.3351L91.3943 55.8342C91.5719 55.5356 91.8087 55.237 92.1047 55.0579C92.4006 54.8787 92.7558 54.7593 93.1109 54.7593C93.2293 54.7593 93.3477 54.7593 93.4661 54.819C93.5845 54.819 93.7029 54.8787 93.7621 54.8787V56.5507Z" fill="white"/>
<path d="M99.3265 62.8209C99.2673 62.7015 99.2673 62.6417 99.2081 62.4626C99.1489 62.3432 99.1489 62.2237 99.1489 62.0446C99.0305 62.164 98.9122 62.2834 98.7346 62.4029C98.6162 62.5223 98.4386 62.582 98.261 62.7015C98.0834 62.7612 97.9059 62.8209 97.7283 62.8806C97.5507 62.9403 97.3139 62.9403 97.0772 62.9403C96.6628 62.9403 96.3076 62.8806 96.0117 62.7612C95.6565 62.6417 95.4197 62.4626 95.183 62.2834C94.9462 62.0446 94.7686 61.8057 94.6502 61.5071C94.5318 61.2086 94.4727 60.91 94.4727 60.5517C94.4727 60.1337 94.5318 59.7754 94.7094 59.4171C94.887 59.1185 95.1238 58.8199 95.4197 58.5811C95.7157 58.3422 96.0709 58.2228 96.5444 58.1034C96.9588 57.9839 97.4915 57.9242 98.0243 57.9242H99.1489V57.3868C99.1489 56.9688 99.0305 56.6702 98.7938 56.4313C98.557 56.1925 98.2018 56.073 97.7875 56.073C97.5507 56.073 97.3731 56.073 97.1955 56.1327C97.018 56.1925 96.8996 56.2522 96.7812 56.3716C96.6628 56.491 96.5444 56.5507 96.4852 56.7299C96.426 56.8493 96.3668 57.0285 96.3668 57.1479H94.591C94.591 56.8493 94.6502 56.5507 94.8278 56.2522C95.0054 55.9536 95.183 55.7147 95.4789 55.4759C95.7749 55.237 96.0709 55.0579 96.4852 54.9384C96.8996 54.819 97.3139 54.7593 97.8467 54.7593C98.261 54.7593 98.6754 54.819 99.0897 54.9384C99.4449 55.0579 99.8001 55.237 100.037 55.4759C100.333 55.7147 100.51 55.9536 100.688 56.3119C100.866 56.6702 100.925 57.0285 100.925 57.5062V61.0294C100.925 61.746 101.043 62.2834 101.221 62.7015V62.8209H99.3265ZM97.3731 61.5669C97.5507 61.5669 97.7875 61.5669 97.9651 61.5071C98.1426 61.4474 98.3202 61.3877 98.4386 61.2683C98.557 61.2086 98.7346 61.0891 98.7938 60.9697C98.9122 60.8503 98.9713 60.7308 99.0305 60.6114V59.1185H98.0834C97.4323 59.1185 96.9588 59.2379 96.6036 59.4768C96.2485 59.7157 96.1301 60.0143 96.1301 60.4323C96.1301 60.6114 96.1301 60.7308 96.1893 60.8503C96.2485 60.9697 96.3076 61.0891 96.426 61.2086C96.5444 61.328 96.6628 61.3877 96.8404 61.4474C97.018 61.5669 97.1955 61.5669 97.3731 61.5669Z" fill="white"/>
<path d="M104.536 62.8209H102.76V51.6541H104.536V62.8209Z" fill="white"/>
<path d="M109.863 63C109.271 63 108.738 62.8806 108.324 62.7014C107.85 62.5223 107.495 62.2237 107.14 61.9251C106.844 61.5668 106.548 61.2085 106.371 60.7308C106.193 60.2531 106.134 59.7753 106.134 59.2379V58.9393C106.134 58.3422 106.252 57.745 106.43 57.2673C106.607 56.7896 106.844 56.3118 107.199 56.0133C107.495 55.655 107.91 55.4161 108.324 55.1772C108.738 54.9981 109.212 54.8787 109.685 54.8787C110.277 54.8787 110.751 54.9981 111.165 55.1772C111.58 55.3564 111.935 55.655 112.231 55.9535C112.527 56.3118 112.704 56.7298 112.823 57.2076C112.941 57.6853 113 58.2227 113 58.7602V59.5365H107.91C107.91 59.8351 107.969 60.1336 108.087 60.3725C108.206 60.6114 108.324 60.8502 108.502 61.0294C108.679 61.2085 108.916 61.3877 109.153 61.4474C109.389 61.5668 109.685 61.6265 109.981 61.6265C110.396 61.6265 110.81 61.5668 111.106 61.3877C111.402 61.2085 111.698 60.9697 111.935 60.6711L112.882 61.5668C112.763 61.746 112.586 61.9251 112.408 62.1043C112.231 62.2834 111.994 62.4626 111.757 62.582C111.52 62.7014 111.224 62.8208 110.928 62.9403C110.632 62.9403 110.277 63 109.863 63ZM109.685 56.2521C109.212 56.2521 108.797 56.4313 108.502 56.7896C108.206 57.1479 108.028 57.6256 107.91 58.2227H111.284V58.1033C111.284 57.8644 111.224 57.6256 111.165 57.4464C111.106 57.2076 110.988 57.0284 110.869 56.8493C110.751 56.6701 110.573 56.5507 110.396 56.4313C110.218 56.3118 109.922 56.2521 109.685 56.2521Z" fill="white"/>
<path d="M113 43.234H103.588V15.7648C103.588 14.3316 103.41 13.0776 103.114 12.0624C102.819 11.0472 102.345 10.2709 101.694 9.61407C101.043 9.01692 100.332 8.53919 99.3853 8.24061C98.4382 7.94203 97.4319 7.8226 96.2481 7.8226C94.2947 7.8226 92.6373 8.30033 91.1574 9.25578C89.7368 10.2112 88.5529 11.4653 87.7242 13.0776V43.234H78.3125V0.835874H87.1915L87.4875 5.73256C88.9673 3.94109 90.7431 2.50791 92.8149 1.55246C94.8866 0.537295 97.1952 0.0595703 99.7405 0.0595703C101.753 0.0595703 103.588 0.358148 105.245 0.895589C106.903 1.49275 108.264 2.38848 109.448 3.64251C110.632 4.89654 111.52 6.50886 112.171 8.53919C112.822 10.5695 113.118 13.0179 113.118 15.8842V43.234H113Z" fill="white"/>
</g>
<defs>
<clipPath id="clip0">
<rect width="113" height="63" fill="white"/>
</clipPath>
</defs>
</svg>
