<svg width="62" height="60" viewBox="0 0 62 60" fill="none" xmlns="http://www.w3.org/2000/svg">
<path d="M55.1087 21.2211L61.6477 14.5818C61.9141 14.3113 62.0473 13.9179 61.9868 13.5367C61.9384 13.1556 61.7083 12.8236 61.3692 12.6269L53.5102 8.24983C52.929 7.91787 52.1903 8.13918 51.8634 8.74164C51.5364 9.3318 51.7544 10.0818 52.3477 10.4138L58.7899 14.0039L53.1833 19.6966L32.9969 8.44656L38.6036 2.75393L44.2708 5.91377C44.852 6.24574 45.5907 6.02442 45.9177 5.42196C46.2446 4.8318 46.0266 4.0818 45.4333 3.74983L38.979 0.147375C38.5067 -0.110822 37.9255 -0.0247564 37.538 0.356391L30.9989 6.99574L24.4598 0.356391C24.0844 -0.0247564 23.4911 -0.110822 23.0188 0.147375L0.628591 12.6392C0.289528 12.8236 0.0715594 13.1556 0.0110126 13.549C-0.0374249 13.9302 0.0836688 14.3236 0.350075 14.5941L6.88914 21.2334L0.350075 27.8728C0.0836688 28.1433 -0.0495343 28.5367 0.0110126 28.9179C0.0594501 29.299 0.289528 29.631 0.628591 29.8277L7.39773 33.6023V46.217C7.39773 46.672 7.63992 47.0777 8.02742 47.299L30.4177 59.7539C30.5993 59.8523 30.8052 59.9015 30.9989 59.9015C31.2048 59.9015 31.3985 59.8523 31.5802 59.7539L53.9704 47.2744C54.3579 47.0531 54.6001 46.6474 54.6001 46.1925V33.5777L61.3692 29.8031C61.7083 29.6187 61.9262 29.2867 61.9868 28.8933C62.0352 28.5121 61.9141 28.1187 61.6477 27.8482L55.1087 21.2211ZM30.9989 32.299L11.1153 21.2211L30.9989 10.1433L50.8825 21.2211L30.9989 32.299ZM23.3942 2.75393L29.0009 8.44656L8.81453 19.6966L3.20789 14.0039L23.3942 2.75393ZM8.81453 22.7457L29.0009 33.9957L23.3942 39.6884L3.20789 28.4384L8.81453 22.7457ZM52.1782 45.467L32.2098 56.5941V44.0285C32.2098 43.3523 31.6649 42.799 30.9989 42.799C30.3329 42.799 29.788 43.3523 29.788 44.0285V56.5941L9.81961 45.467V34.9302L23.0188 42.2949C23.2005 42.3933 23.4063 42.4425 23.6001 42.4425C23.9149 42.4425 24.2298 42.3195 24.4598 42.0859L30.9989 35.4466L37.538 42.0859C37.768 42.3195 38.0829 42.4425 38.3977 42.4425C38.5915 42.4425 38.7973 42.3933 38.979 42.2949L52.1782 34.9302V45.467ZM38.6036 39.6884L32.9969 33.9957L53.1833 22.7457L58.7899 28.4384L38.6036 39.6884Z" fill="#C4C4C4"/>
</svg>
