<svg width="18" height="14" viewBox="0 0 18 14" fill="none" xmlns="http://www.w3.org/2000/svg">
<g clip-path="url(#clip0)">
<path d="M13.5947 13.903C12.3432 13.903 11.3271 12.7999 11.3271 11.4496C11.3271 10.0993 12.3467 8.99622 13.5947 8.99622C14.8428 8.99622 15.8623 10.0993 15.8623 11.4496C15.8623 12.7999 14.8463 13.903 13.5947 13.903ZM13.5947 10.221C12.9689 10.221 12.4592 10.7726 12.4592 11.4496C12.4592 12.1267 12.9689 12.6782 13.5947 12.6782C14.2205 12.6782 14.7303 12.1267 14.7303 11.4496C14.7303 10.7726 14.2205 10.221 13.5947 10.221Z" fill="white"/>
<path d="M5.84277 13.903C4.59121 13.903 3.5752 12.7999 3.5752 11.4496C3.5752 10.0993 4.59473 8.99622 5.84277 8.99622C7.09082 8.99622 8.11035 10.0993 8.11035 11.4496C8.11035 12.7999 7.09434 13.903 5.84277 13.903ZM5.84277 10.221C5.21699 10.221 4.70723 10.7726 4.70723 11.4496C4.70723 12.1267 5.21699 12.6782 5.84277 12.6782C6.46855 12.6782 6.97832 12.1267 6.97832 11.4496C6.97832 10.7726 6.46855 10.221 5.84277 10.221Z" fill="white"/>
<path d="M15.81 6.17745L14.2666 2.85369H11.6299V1.62915H14.6182C14.8326 1.62915 15.0295 1.75845 15.1244 1.96761L16.826 5.62983L15.81 6.17745Z" fill="white"/>
<path d="M11.8932 10.8524H7.60059V12.0817H11.8932V10.8524Z" fill="white"/>
<path d="M4.14121 12.0817H2.17246C1.85957 12.0817 1.60645 11.8077 1.60645 11.4689C1.60645 11.1302 1.85957 10.8562 2.17246 10.8562H4.1377C4.45059 10.8562 4.70371 11.1302 4.70371 11.4689C4.70371 11.8077 4.4541 12.0817 4.14121 12.0817Z" fill="white"/>
<path d="M17.4338 12.081H15.2963C14.9834 12.081 14.7303 11.8071 14.7303 11.4686C14.7303 11.1301 14.9834 10.8562 15.2963 10.8562H16.8643V7.6915L16.0381 6.53898H11.6295C11.3166 6.53898 11.0635 6.26511 11.0635 5.92658V1.62838H2.17246C1.85957 1.62838 1.60645 1.35451 1.60645 1.01598C1.60645 0.677452 1.85957 0.39978 2.17246 0.39978H11.626C11.9389 0.39978 12.192 0.673648 12.192 1.01218V5.30657H16.3123C16.4881 5.30657 16.6533 5.39406 16.7588 5.5424L17.8732 7.09812C17.9506 7.20463 17.9928 7.33776 17.9928 7.47469V11.4686C17.9998 11.8071 17.7467 12.081 17.4338 12.081Z" fill="white"/>
<path d="M4.10283 8.97025H1.49424C1.18135 8.97025 0.928223 8.69623 0.928223 8.3575C0.928223 8.01878 1.18135 7.74475 1.49424 7.74475H4.10283C4.41573 7.74475 4.66885 8.01878 4.66885 8.3575C4.66885 8.69623 4.41573 8.97025 4.10283 8.97025Z" fill="white"/>
<path d="M5.40703 6.55874H0.566016C0.253125 6.55874 0 6.28472 0 5.946C0 5.60727 0.253125 5.33325 0.566016 5.33325H5.40703C5.71992 5.33325 5.97305 5.60727 5.97305 5.946C5.97305 6.28472 5.71992 6.55874 5.40703 6.55874Z" fill="white"/>
<path d="M6.33525 4.14285H1.49424C1.18135 4.14285 0.928223 3.86883 0.928223 3.5301C0.928223 3.19138 1.18135 2.91736 1.49424 2.91736H6.33525C6.64814 2.91736 6.90127 3.19138 6.90127 3.5301C6.90127 3.86883 6.64814 4.14285 6.33525 4.14285Z" fill="white"/>
</g>
<defs>
<clipPath id="clip0">
<rect width="18" height="13.5032" fill="white" transform="translate(0 0.39978)"/>
</clipPath>
</defs>
</svg>
