<svg width="45" height="45" viewBox="0 0 45 45" fill="none" xmlns="http://www.w3.org/2000/svg">
<circle cx="22.5" cy="22.5" r="22.5" fill="#F9BA84" fill-opacity="0.2"/>
<path d="M24.3339 18.813C24.3339 18.813 24.2431 18.7676 24.1913 18.826C23.2898 19.7598 21.8826 21.2385 21.5324 21.4006C20.3391 21.9453 19.1783 21.3292 17.2068 23.3007L12.2911 28.2164C10.2094 30.2981 10.9422 30.8169 12.4013 32.2631C13.841 33.7223 14.3663 34.4551 16.4481 32.3734L21.3638 27.4577C23.3352 25.4862 22.7516 24.3643 23.2963 23.171C23.4584 22.8208 24.95 21.3357 25.8255 20.4667C25.9033 20.3889 25.8255 20.3111 25.8255 20.3111L24.3339 18.813ZM19.5544 27.8273L17.9915 29.3902C17.8813 29.5005 17.7062 29.5005 17.5959 29.3902L15.2742 27.0686C15.164 26.9583 15.164 26.7832 15.2742 26.673L16.8372 25.1036C16.9474 24.9933 17.1225 24.9933 17.2327 25.1036L19.5544 27.4252C19.6647 27.5355 19.6647 27.7171 19.5544 27.8273Z" fill="black"/>
<path d="M34.9045 13.2617L33.1925 11.5497C33.186 11.5432 33.186 11.5432 33.1795 11.5367L33.1146 11.4718C33.1081 11.4653 33.1081 11.4653 33.1017 11.4589L31.4026 9.75328C31.2729 9.62358 31.0524 9.62358 30.9227 9.75328L29.8007 10.8752C29.671 11.0049 29.671 11.2254 29.8007 11.3551C29.8007 11.3551 30.8513 12.4057 31.2145 12.7689C31.2404 12.7948 31.2729 12.8532 31.221 12.905C31.007 13.1126 30.5141 13.6119 30.5141 13.6119C30.4493 13.6768 30.4168 13.7546 30.4168 13.8324C30.4168 13.8389 30.4233 13.8454 30.4103 13.8519C30.4039 13.8584 30.3974 13.8519 30.3844 13.8519C30.2352 13.813 30.0537 13.8 29.9045 13.9427C29.71 14.1372 29.8332 14.4161 29.9304 14.6301C29.9629 14.7014 30.0148 14.8117 30.0212 14.87C29.9629 14.8571 29.8461 14.8117 29.7748 14.7792C29.5543 14.682 29.2819 14.5587 29.0874 14.7533C28.8928 14.9478 29.016 15.2267 29.1133 15.4407C29.1457 15.5121 29.1976 15.6223 29.2041 15.6807C29.1458 15.6677 29.029 15.6223 28.9642 15.5899C28.7437 15.4926 28.4713 15.3694 28.2767 15.5639C28.1535 15.6872 28.1535 15.8298 28.173 15.9595C28.173 15.966 28.16 15.9725 28.147 15.953L27.9655 15.7715C27.8552 15.6612 27.6866 15.6547 27.5893 15.752L26.2793 17.062C26.1821 17.1593 26.1885 17.3279 26.2988 17.4381L27.2132 18.3525C27.3234 18.4628 27.492 18.4693 27.5893 18.372L28.8993 17.062C28.9966 16.9647 28.9901 16.7961 28.8799 16.6859L28.6529 16.4589C28.6269 16.4329 28.6269 16.407 28.6334 16.394C28.6594 16.2384 28.614 16.0957 28.588 15.992C28.5751 15.9466 28.5556 15.8752 28.5556 15.8493C28.614 15.8558 28.7372 15.9076 28.8085 15.9466C29.029 16.0438 29.3014 16.167 29.4959 15.9725C29.6905 15.7779 29.5673 15.4991 29.47 15.2851C29.4376 15.2137 29.3857 15.1035 29.3792 15.0386C29.4376 15.0516 29.5543 15.097 29.6192 15.1294C29.8397 15.2267 30.112 15.3499 30.3066 15.1554C30.5011 14.9608 30.3779 14.682 30.2806 14.468C30.2482 14.3901 30.1899 14.2669 30.1834 14.2085C30.2158 14.2021 30.3196 14.2345 30.3779 14.2475C30.5336 14.2929 30.7541 14.3512 30.9551 14.228C30.994 14.2085 31.0199 14.1761 31.0524 14.1372L31.7398 13.4498C31.7398 13.4498 31.8241 13.372 31.9019 13.4498C32.2781 13.8324 32.2845 13.8584 33.3027 14.8506C33.4324 14.9803 33.6529 14.9803 33.7826 14.8506L34.9045 13.7416C35.0407 13.6119 35.0407 13.3914 34.9045 13.2617Z" fill="black"/>
</svg>
