<svg width="32" height="38" viewBox="0 0 32 38" fill="none" xmlns="http://www.w3.org/2000/svg">
<path d="M8.33476 32.7338C6.89024 32.7338 5.7334 33.9028 5.7334 35.3474C5.7334 36.7919 6.89024 37.961 8.33476 37.961C9.77928 37.961 10.9484 36.7919 10.9484 35.3474C10.9484 33.9028 9.77928 32.7338 8.33476 32.7338Z" fill="#E08433"/>
<path d="M21.3904 32.7338C19.9459 32.7338 18.7891 33.9028 18.7891 35.3474C18.7891 36.7919 19.9459 37.961 21.3904 37.961C22.8349 37.961 24.004 36.7919 24.004 35.3474C24.004 33.9028 22.8349 32.7338 21.3904 32.7338Z" fill="#E08433"/>
<path d="M9.77307 26.2089H19.4991C20.4784 26.2089 21.3353 25.6642 21.7822 24.8623L26.4524 16.385C26.5564 16.2013 26.6176 15.9871 26.6176 15.7606C26.6176 15.0384 26.03 14.4569 25.3139 14.4569H6.00264L4.76622 11.8433H0.5V14.4569H3.1136L7.80828 24.3604L6.04548 27.5616C5.84349 27.9411 5.7272 28.3634 5.7272 28.8225C5.7272 30.267 6.89628 31.4361 8.3408 31.4361H24.0101V28.8225H8.89167C8.70805 28.8225 8.56727 28.6817 8.56727 28.4981C8.56727 28.4369 8.57951 28.3879 8.60399 28.339L9.77307 26.2089Z" fill="#E08433"/>
<circle cx="23.8969" cy="14.0198" r="6.61764" fill="white" stroke="#E08433" stroke-width="2"/>
<path d="M27.6639 13.185C27.7173 13.185 27.7599 13.2063 27.7919 13.249C27.8346 13.281 27.8559 13.3236 27.8559 13.377V14.929C27.8559 14.9823 27.8346 15.0303 27.7919 15.073C27.7599 15.105 27.7173 15.121 27.6639 15.121H25.4719C25.4186 15.121 25.3919 15.1476 25.3919 15.201V17.361C25.3919 17.4143 25.3706 17.4623 25.3279 17.505C25.2959 17.537 25.2533 17.553 25.1999 17.553H23.6639C23.6106 17.553 23.5626 17.537 23.5199 17.505C23.4879 17.4623 23.4719 17.4143 23.4719 17.361V15.201C23.4719 15.1476 23.4453 15.121 23.3919 15.121H21.1999C21.1466 15.121 21.0986 15.105 21.0559 15.073C21.0239 15.0303 21.0079 14.9823 21.0079 14.929V13.377C21.0079 13.3236 21.0239 13.281 21.0559 13.249C21.0986 13.2063 21.1466 13.185 21.1999 13.185H23.3919C23.4453 13.185 23.4719 13.1583 23.4719 13.105V10.897C23.4719 10.8436 23.4879 10.801 23.5199 10.769C23.5626 10.7263 23.6106 10.705 23.6639 10.705H25.1999C25.2533 10.705 25.2959 10.7263 25.3279 10.769C25.3706 10.801 25.3919 10.8436 25.3919 10.897V13.105C25.3919 13.1583 25.4186 13.185 25.4719 13.185H27.6639Z" fill="#E08433"/>
</svg>
