<svg width="33" height="33" viewBox="0 0 33 33" fill="none" xmlns="http://www.w3.org/2000/svg">
<path d="M22.4104 23.1064V14.0379C22.4104 13.5029 21.9785 13.0711 21.4436 13.0711H21.4242V11.2664C21.4242 8.55293 19.2199 6.34863 16.5064 6.34863C13.793 6.34863 11.5887 8.55293 11.5887 11.2664V13.0711H11.5693C11.0344 13.0711 10.6025 13.5029 10.6025 14.0379V23.1064C10.6025 23.6414 11.0344 24.0732 11.5693 24.0732H21.4564C21.9785 24.0732 22.4104 23.6414 22.4104 23.1064ZM15.5332 18.4271C15.5332 17.8922 15.965 17.4604 16.5 17.4604C17.035 17.4604 17.4668 17.8922 17.4668 18.4271V19.6324C17.4668 20.1674 17.035 20.5992 16.5 20.5992C15.965 20.5992 15.5332 20.1674 15.5332 19.6324V18.4271ZM13.5158 11.2664C13.5158 9.61641 14.8564 8.28223 16.5 8.28223C18.15 8.28223 19.4842 9.62285 19.4842 11.2664V13.0711H13.5094V11.2664H13.5158Z" fill="black"/>
<path d="M28.166 4.83398C25.0529 1.71445 20.9086 0 16.5 0C12.0914 0 7.94707 1.71445 4.83398 4.83398C1.71445 7.94707 0 12.0914 0 16.5C0 21.8045 2.51367 26.7223 6.77402 29.8289L6.46465 29.932C5.95547 30.0996 5.68477 30.6475 5.85234 31.1566C5.9877 31.5627 6.36152 31.8205 6.76758 31.8205C6.8707 31.8205 6.97383 31.8076 7.07051 31.7689L9.19102 31.06C9.57773 30.9311 9.84199 30.5701 9.85488 30.1641L9.9 27.9275C9.91289 27.3926 9.4875 26.9543 8.95254 26.9414C8.41758 26.9285 7.9793 27.3539 7.96641 27.8889L7.95996 28.3078C4.17656 25.5621 1.93359 21.2051 1.93359 16.5C1.93359 8.46914 8.46914 1.93359 16.5 1.93359C24.5309 1.93359 31.0664 8.46914 31.0664 16.5C31.0664 24.5309 24.5309 31.0664 16.5 31.0664C15.965 31.0664 15.5332 31.4982 15.5332 32.0332C15.5332 32.5682 15.965 33 16.5 33C20.9086 33 25.0529 31.2855 28.166 28.166C31.2855 25.0465 33 20.9086 33 16.5C33 12.0914 31.2855 7.94707 28.166 4.83398Z" fill="black"/>
</svg>
