<svg width="39" height="37" viewBox="0 0 39 37" fill="none" xmlns="http://www.w3.org/2000/svg">
<g clip-path="url(#clip0)">
<path d="M19.2244 0C8.65098 0 0 8.325 0 18.5C0 28.675 8.65098 37 19.2244 37C29.7978 37 38.4488 28.675 38.4488 18.5C38.4488 8.325 29.7978 0 19.2244 0ZM26.9142 14.6844C26.9142 14.8 26.9142 15.0312 26.9142 15.1469C26.9142 20.1188 22.9491 25.9 15.74 25.9C13.4571 25.9 11.4145 25.3219 9.73235 24.1656C10.0928 24.1656 10.3331 24.1656 10.6936 24.1656C12.4959 24.1656 14.2981 23.5875 15.6198 22.5469C13.9377 22.5469 12.4959 21.3906 11.8951 19.8875C12.1354 19.8875 12.3757 20.0031 12.616 20.0031C12.9765 20.0031 13.3369 20.0031 13.6974 19.8875C11.8951 19.5406 10.5734 18.0375 10.5734 16.1875C11.054 16.4188 11.6548 16.65 12.3757 16.65C11.2943 15.9562 10.5734 14.8 10.5734 13.5281C10.5734 12.8344 10.8137 12.1406 11.054 11.5625C12.9765 13.875 15.8601 15.3781 19.2244 15.4937C19.1042 15.2625 19.1042 14.9156 19.1042 14.6844C19.1042 12.6031 20.9065 10.8687 23.0693 10.8687C24.1507 10.8687 25.232 11.3312 25.9529 12.025C26.794 11.9094 27.7552 11.5625 28.4761 11.1C28.2358 12.025 27.5149 12.7188 26.794 13.1812C27.6351 13.0656 28.356 12.8344 29.0769 12.6031C28.356 13.5281 27.6351 14.2219 26.9142 14.6844Z" fill="#3AAAE1"/>
</g>
<defs>
<clipPath id="clip0">
<rect width="38.4488" height="37" fill="white"/>
</clipPath>
</defs>
</svg>
