<svg width="17" height="20" viewBox="0 0 17 20" fill="none" xmlns="http://www.w3.org/2000/svg">
<path d="M8.45519 19.6788C10.3401 19.6788 12.8584 16.4726 13.356 15.8343C14.4869 14.3499 16.3719 11.4108 16.3719 8.47178C16.3719 6.4085 15.5123 4.38975 13.9893 2.90537C12.4965 1.43584 10.5361 0.634277 8.48535 0.634277C8.47027 0.634277 8.44011 0.634277 8.42503 0.634277C6.35915 0.634277 4.41392 1.43584 2.90598 2.90537C1.39804 4.38975 0.523438 6.42334 0.523438 8.47178C0.523438 11.4108 2.40836 14.3499 3.53931 15.8343C4.05201 16.4726 6.57027 19.6788 8.45519 19.6788ZM4.51947 4.47881C5.59011 3.4249 6.97741 2.846 8.44011 2.846H8.45519C9.91789 2.83115 11.3203 3.4249 12.3909 4.47881C13.4766 5.54756 14.11 7.00225 14.11 8.47178C14.11 10.0897 13.2203 12.2124 11.6822 14.3054C10.2496 16.2499 8.90757 17.289 8.45519 17.4522C8.00281 17.289 6.64566 16.2499 5.2282 14.3054C3.69011 12.2124 2.80042 10.0897 2.80042 8.47178C2.80042 7.00225 3.43376 5.54756 4.51947 4.47881Z" fill="#333333"/>
<path d="M8.45536 11.7671C10.3252 11.7671 11.8482 10.2679 11.8482 8.42725C11.8482 6.58662 10.3252 5.0874 8.45536 5.0874C6.58552 5.0874 5.0625 6.58662 5.0625 8.42725C5.0625 10.2679 6.58552 11.7671 8.45536 11.7671ZM8.45536 7.31397C9.07361 7.31397 9.58631 7.81866 9.58631 8.42725C9.58631 9.03584 9.07361 9.54053 8.45536 9.54053C7.83711 9.54053 7.32441 9.03584 7.32441 8.42725C7.32441 7.80381 7.83711 7.31397 8.45536 7.31397Z" fill="#333333"/>
</svg>
