<svg width="47" height="47" viewBox="0 0 47 47" fill="none" xmlns="http://www.w3.org/2000/svg">
<path d="M47 31.8076C47 24.9596 42.3826 18.9744 35.8742 17.166C35.4611 7.62832 27.585 0 17.9463 0C8.05059 0 0 8.05059 0 17.9463C0 21.1684 0.862891 24.3078 2.4877 27.0709L0.0642578 35.8283L8.82168 33.4049C11.3553 34.9012 14.2102 35.7457 17.166 35.8742C18.9744 42.3826 24.9596 47 31.8076 47C34.5432 47 37.2053 46.2748 39.5369 44.8887L46.9357 46.9357L44.8887 39.5369C46.2748 37.2053 47 34.5432 47 31.8076ZM9.26231 30.4307L4.0207 31.8811L5.47109 26.6395L5.14062 26.1254C3.58008 23.6836 2.76309 20.8654 2.76309 17.9555C2.75391 9.56524 9.56523 2.75391 17.9463 2.75391C26.3273 2.75391 33.1387 9.56523 33.1387 17.9463C33.1387 26.3273 26.3273 33.1387 17.9463 33.1387C15.0363 33.1387 12.2182 32.3125 9.77637 30.7611L9.26231 30.4307ZM42.9885 42.9885L39.0963 41.9145L38.573 42.2541C36.5627 43.5668 34.2219 44.2553 31.8076 44.2553C26.4191 44.2553 21.6916 40.7762 20.0117 35.7824C28.2551 34.8277 34.8186 28.2734 35.7732 20.0209C40.767 21.7008 44.2461 26.4283 44.2461 31.8168C44.2461 34.2311 43.5576 36.5719 42.2449 38.5822L41.9053 39.1055L42.9885 42.9885Z" fill="black"/>
<path d="M19.3232 24.877H16.5693V27.6309H19.3232V24.877Z" fill="black"/>
<path d="M20.7002 13.7695C20.7002 14.5498 20.3789 15.275 19.8006 15.7982L16.5693 18.7541V22.123H19.3232V19.975L21.6641 17.8361C22.8023 16.7988 23.4541 15.3117 23.4541 13.7695C23.4541 10.7311 20.9848 8.26172 17.9463 8.26172C14.9078 8.26172 12.4385 10.7311 12.4385 13.7695H15.1924C15.1924 12.2549 16.4316 11.0156 17.9463 11.0156C19.4609 11.0156 20.7002 12.2549 20.7002 13.7695Z" fill="black"/>
</svg>
