<svg width="45" height="32" viewBox="0 0 45 32" fill="none" xmlns="http://www.w3.org/2000/svg">
<path d="M43.4724 14.3162L40.4082 13.0126L37.8061 8.03519C37.1028 6.67234 35.6762 5.82303 34.1189 5.8329H29.6381V4.58856C29.6381 2.33689 27.8096 0.5 25.5189 0.5H4.09933C1.80868 0.5 0.000267322 2.34676 0.000267322 4.58856V23.6487C-0.0198261 25.0215 1.09536 26.1473 2.49185 26.1671C2.5019 26.1671 2.51195 26.1671 2.53204 26.1671H3.06452C3.06452 26.2658 3.05447 26.3053 3.05447 26.3646C3.04442 29.189 5.36521 31.4901 8.23858 31.5C11.1119 31.5098 13.4528 29.2285 13.4629 26.4041C13.4629 26.3843 13.4629 26.3745 13.4629 26.3547C13.4629 26.2856 13.4629 26.2559 13.4528 26.1572H30.7633C30.7633 26.2559 30.7633 26.2954 30.7633 26.3547C30.7533 29.1792 33.0741 31.4802 35.9474 31.4901C38.8208 31.5 41.1617 29.2187 41.1717 26.3942C41.1717 26.3745 41.1717 26.3646 41.1717 26.3448C41.1717 26.2757 41.1717 26.2461 41.1717 26.1473H42.4677C43.8642 26.1473 44.9995 25.0314 44.9995 23.6586C44.9995 23.6487 44.9995 23.6389 44.9995 23.6191V16.6073C45.0196 15.6395 44.4168 14.7211 43.4724 14.3162ZM34.1189 7.81793C34.9126 7.80805 35.6561 8.23271 36.0278 8.93389L38.0371 12.7558H29.6381V7.81793H34.1189ZM4.09933 2.48503H25.5189C26.6944 2.4949 27.6388 3.44297 27.6287 4.58856V4.59843V16.6073H2.00961V4.59843C2.00961 3.44297 2.92386 2.48503 4.09933 2.48503ZM8.26872 29.5347C6.50049 29.5347 5.07386 28.1323 5.07386 26.3942C5.07386 24.6561 6.50049 23.2537 8.26872 23.2537C10.0369 23.2537 11.4636 24.6561 11.4636 26.3942C11.4636 28.1225 10.0269 29.5347 8.26872 29.5347ZM8.26872 21.2588C6.23928 21.2489 4.40073 22.3945 3.55681 24.2117H2.53204C2.22059 24.2117 2.00961 23.9746 2.00961 23.6685V18.5825H27.6287V24.2117H12.9806C12.1367 22.4044 10.2881 21.2489 8.26872 21.2588ZM35.9776 29.5347C34.2093 29.5347 32.7827 28.1323 32.7827 26.3942C32.7827 24.6561 34.2093 23.2537 35.9776 23.2537C37.7458 23.2537 39.1724 24.6561 39.1724 26.3942C39.1724 28.1225 37.7458 29.5347 35.9776 29.5347ZM43.0002 23.6685C43.0002 23.9746 42.7892 24.2117 42.4778 24.2117H40.6895C39.4738 21.6538 36.3794 20.5478 33.7773 21.7427C32.6722 22.2464 31.778 23.1253 31.2657 24.2117H29.6381V14.731H39.4839L42.6787 16.1136C42.8797 16.2123 43.0103 16.4296 43.0002 16.6468V23.6685Z" fill="black"/>
</svg>
