<svg width="45" height="45" viewBox="0 0 45 45" fill="none" xmlns="http://www.w3.org/2000/svg">
<circle cx="22.5" cy="22.5" r="22.5" fill="#F9BA84" fill-opacity="0.2"/>
<path d="M20.7938 18.1119C20.9906 17.915 21.1 17.6481 21.1 17.3681V12.35C21.1 12.1575 21.2575 12 21.45 12H23.55C23.7425 12 23.9 12.1575 23.9 12.35V17.3681C23.9 17.6481 24.0094 17.915 24.2062 18.1119C25.3569 19.2581 26.0044 20.8156 26 22.4388V31.95C26 32.5319 25.5319 33 24.95 33H20.05C19.4681 33 19 32.5319 19 31.95V22.4388C18.9956 20.8156 19.6388 19.2581 20.7938 18.1119ZM23.2 12.7H21.8V13.4H23.2V12.7ZM19.7 31.95C19.7 32.1425 19.8575 32.3 20.05 32.3H24.95C25.1425 32.3 25.3 32.1425 25.3 31.95V30.9H19.7V31.95ZM19.7 30.2H25.3V23.2H19.7V30.2ZM19.7 22.5H25.3V22.4388C25.3044 20.9994 24.7312 19.6212 23.7119 18.6062C23.3837 18.2781 23.2 17.8319 23.2 17.3681V13.9906H21.8V17.3725C21.8 17.8362 21.6163 18.2825 21.2881 18.6106C20.2688 19.6256 19.6956 21.0037 19.7 22.4431V22.5Z" fill="#333333" stroke="#333333" stroke-miterlimit="10"/>
</svg>
