<svg width="18" height="15" viewBox="0 0 18 15" fill="none" xmlns="http://www.w3.org/2000/svg">
<g clip-path="url(#clip0)">
<path d="M13.5947 14.1396C12.3432 14.1396 11.3271 13.0365 11.3271 11.6862C11.3271 10.3359 12.3467 9.23279 13.5947 9.23279C14.8428 9.23279 15.8623 10.3359 15.8623 11.6862C15.8623 13.0365 14.8463 14.1396 13.5947 14.1396ZM13.5947 10.4576C12.9689 10.4576 12.4592 11.0091 12.4592 11.6862C12.4592 12.3632 12.9689 12.9148 13.5947 12.9148C14.2205 12.9148 14.7303 12.3632 14.7303 11.6862C14.7303 11.0091 14.2205 10.4576 13.5947 10.4576Z" fill="#333333"/>
<path d="M5.84277 14.1396C4.59121 14.1396 3.5752 13.0365 3.5752 11.6862C3.5752 10.3359 4.59473 9.23279 5.84277 9.23279C7.09082 9.23279 8.11035 10.3359 8.11035 11.6862C8.11035 13.0365 7.09434 14.1396 5.84277 14.1396ZM5.84277 10.4576C5.21699 10.4576 4.70723 11.0091 4.70723 11.6862C4.70723 12.3632 5.21699 12.9148 5.84277 12.9148C6.46855 12.9148 6.97832 12.3632 6.97832 11.6862C6.97832 11.0091 6.46855 10.4576 5.84277 10.4576Z" fill="#333333"/>
<path d="M15.81 6.41402L14.2666 3.09027H11.6299V1.86572H14.6182C14.8326 1.86572 15.0295 1.99502 15.1244 2.20418L16.826 5.8664L15.81 6.41402Z" fill="#333333"/>
<path d="M11.8932 11.089H7.60059V12.3183H11.8932V11.089Z" fill="#333333"/>
<path d="M4.14121 12.3183H2.17246C1.85957 12.3183 1.60645 12.0442 1.60645 11.7055C1.60645 11.3668 1.85957 11.0928 2.17246 11.0928H4.1377C4.45059 11.0928 4.70371 11.3668 4.70371 11.7055C4.70371 12.0442 4.4541 12.3183 4.14121 12.3183Z" fill="#333333"/>
<path d="M17.4338 12.3176H15.2963C14.9834 12.3176 14.7303 12.0437 14.7303 11.7052C14.7303 11.3666 14.9834 11.0928 15.2963 11.0928H16.8643V7.92807L16.0381 6.77555H11.6295C11.3166 6.77555 11.0635 6.50168 11.0635 6.16315V1.86495H2.17246C1.85957 1.86495 1.60645 1.59109 1.60645 1.25255C1.60645 0.914024 1.85957 0.636353 2.17246 0.636353H11.626C11.9389 0.636353 12.192 0.91022 12.192 1.24875V5.54315H16.3123C16.4881 5.54315 16.6533 5.63063 16.7588 5.77898L17.8732 7.33469C17.9506 7.4412 17.9928 7.57433 17.9928 7.71126V11.7052C17.9998 12.0437 17.7467 12.3176 17.4338 12.3176Z" fill="#333333"/>
<path d="M4.10235 9.20682H1.49375C1.18086 9.20682 0.927734 8.9328 0.927734 8.59407C0.927734 8.25535 1.18086 7.98132 1.49375 7.98132H4.10235C4.41524 7.98132 4.66836 8.25535 4.66836 8.59407C4.66836 8.9328 4.41524 9.20682 4.10235 9.20682Z" fill="#333333"/>
<path d="M5.40703 6.79531H0.566016C0.253125 6.79531 0 6.52129 0 6.18257C0 5.84385 0.253125 5.56982 0.566016 5.56982H5.40703C5.71992 5.56982 5.97305 5.84385 5.97305 6.18257C5.97305 6.52129 5.71992 6.79531 5.40703 6.79531Z" fill="#333333"/>
<path d="M6.33477 4.37942H1.49375C1.18086 4.37942 0.927734 4.1054 0.927734 3.76668C0.927734 3.42795 1.18086 3.15393 1.49375 3.15393H6.33477C6.64766 3.15393 6.90078 3.42795 6.90078 3.76668C6.90078 4.1054 6.64766 4.37942 6.33477 4.37942Z" fill="#333333"/>
</g>
<defs>
<clipPath id="clip0">
<rect width="18" height="13.5032" fill="white" transform="translate(0 0.636353)"/>
</clipPath>
</defs>
</svg>
