<svg width="24" height="19" viewBox="0 0 24 19" fill="none" xmlns="http://www.w3.org/2000/svg">
<g clip-path="url(#clip0)">
<path d="M21.3125 2.78365C19.5812 0.99046 17.2812 0 14.8312 0C12.3812 0 10.0812 0.99046 8.34374 2.78365C8.29374 2.83543 8.23749 2.8937 8.18749 2.94549H0.706249C0.3125 2.94549 0 3.27564 0 3.677C0 4.07836 0.3125 4.40204 0.706249 4.40204H7.08749C6.79999 4.86814 6.55624 5.35366 6.35624 5.8586H2.625C2.2375 5.8586 1.91875 6.18228 1.91875 6.59012C1.91875 6.99796 2.2375 7.31516 2.625 7.31516H5.89999C5.79375 7.79421 5.71874 8.27973 5.68124 8.77172H4.5C4.1125 8.77172 3.79375 9.0954 3.79375 9.49676C3.79375 9.89813 4.10625 10.2283 4.5 10.2283H5.68749C5.84999 12.4876 6.78124 14.5915 8.34374 16.2099C10.075 18.0031 12.3812 18.9935 14.8312 18.9935C17.2812 18.9935 19.5812 18.0031 21.3187 16.2099C23.05 14.4167 24.0062 12.0279 24.0062 9.49029C24 6.95912 23.0437 4.57683 21.3125 2.78365ZM20.3187 15.1871C19.0187 16.5336 17.3375 17.3428 15.5312 17.5111V16.909C15.5312 16.5077 15.2187 16.1775 14.825 16.1775C14.4375 16.1775 14.1187 16.5012 14.1187 16.909V17.5111C12.3125 17.3428 10.6312 16.5336 9.33124 15.1871C8.03124 13.8405 7.24999 12.0991 7.08749 10.2283H7.66874C8.05624 10.2283 8.37499 9.9046 8.37499 9.49676C8.37499 9.0954 8.06249 8.76525 7.66874 8.76525H7.08749C7.24999 6.89438 8.03124 5.15298 9.33124 3.80647C10.6375 2.46644 12.3187 1.65724 14.125 1.48893V2.09097C14.125 2.49233 14.4375 2.82249 14.8312 2.82249C15.2187 2.82249 15.5375 2.49881 15.5375 2.09097V1.48893C17.3437 1.65724 19.025 2.46644 20.325 3.81295C21.625 5.15946 22.4062 6.90085 22.5687 8.77172H21.9875C21.6 8.77172 21.2875 9.0954 21.2875 9.50324C21.2875 9.9046 21.6 10.2348 21.9875 10.2348H22.5687C22.4 12.0991 21.6187 13.8405 20.3187 15.1871Z" fill="#333333"/>
<path d="M13.8063 10.1247H13.7001C13.7063 8.53221 13.7126 6.82965 13.6938 6.59013C13.6501 6.07224 13.3501 5.64499 12.9251 5.50904C12.5063 5.3731 12.0563 5.54141 11.7251 5.96219C11.3626 6.42182 9.68756 9.55504 9.18131 10.5002C9.06256 10.7268 9.06256 10.9986 9.19381 11.2252C9.31881 11.4453 9.55006 11.5813 9.80006 11.5813H12.2813C12.2813 12.015 12.2751 12.4228 12.2751 12.7983C12.2688 13.1997 12.5813 13.5298 12.9751 13.5363H12.9813C13.3688 13.5363 13.6813 13.2126 13.6813 12.8113C13.6813 12.5847 13.6876 12.138 13.6938 11.5813H13.8126C14.2001 11.5813 14.5126 11.2576 14.5126 10.8498C14.5063 10.4484 14.1938 10.1247 13.8063 10.1247ZM12.2876 10.1247H10.9876C11.4751 9.22488 11.9501 8.3639 12.2938 7.7489C12.3001 8.38332 12.2938 9.23783 12.2876 10.1247Z" fill="#333333"/>
<path d="M19.65 8.86886C19.9125 8.51281 20.0688 8.06613 20.0688 7.58709C20.0688 6.41536 19.15 5.46375 18.0187 5.46375C16.8875 5.46375 15.9688 6.41536 15.9688 7.58709C15.9688 8.06613 16.125 8.51281 16.3875 8.86886C15.825 9.35438 15.4688 10.0794 15.4688 10.8951C15.4688 12.3517 16.6125 13.5363 18.0187 13.5363C19.425 13.5363 20.5688 12.3517 20.5688 10.8951C20.5688 10.0794 20.2062 9.35438 19.65 8.86886ZM17.375 7.58709C17.375 7.21809 17.6625 6.9203 18.0187 6.9203C18.375 6.9203 18.6625 7.21809 18.6625 7.58709C18.6625 7.95608 18.375 8.25387 18.0187 8.25387C17.6625 8.25387 17.375 7.95608 17.375 7.58709ZM18.0187 12.0798C17.3875 12.0798 16.875 11.5489 16.875 10.8951C16.875 10.2413 17.3875 9.71043 18.0187 9.71043C18.65 9.71043 19.1625 10.2413 19.1625 10.8951C19.1625 11.5425 18.6437 12.0798 18.0187 12.0798Z" fill="#333333"/>
</g>
<defs>
<clipPath id="clip0">
<rect width="24" height="19" fill="white"/>
</clipPath>
</defs>
</svg>
