<svg width="21" height="21" viewBox="0 0 21 21" fill="none" xmlns="http://www.w3.org/2000/svg">
<path d="M19.5753 16.2608L16.2703 12.9683C16.8727 11.7722 17.2716 10.3734 17.2716 8.97847C17.2716 4.29116 13.466 0.5 8.7608 0.5C4.05561 0.5 0.25 4.29116 0.25 8.97847C0.25 13.6658 4.05561 17.4569 8.7608 17.4569C10.161 17.4569 11.5651 17.0595 12.7659 16.4595L16.0709 19.7519C17.0721 20.7494 18.574 20.7494 19.5753 19.7519C20.4749 18.7544 20.4749 17.2582 19.5753 16.2608ZM2.25254 8.97847C2.25254 5.38603 5.15466 2.49493 8.7608 2.49493C12.3669 2.49493 15.2691 5.38603 15.2691 8.97847C15.2691 12.5709 12.3669 15.462 8.7608 15.462C5.15466 15.462 2.25254 12.5709 2.25254 8.97847Z" fill="#666666"/>
</svg>
