<svg width="17" height="20" viewBox="0 0 17 20" fill="none" xmlns="http://www.w3.org/2000/svg">
<path d="M8.45568 19.6788C10.3406 19.6788 12.8589 16.4726 13.3565 15.8343C14.4874 14.3499 16.3723 11.4108 16.3723 8.47178C16.3723 6.4085 15.5128 4.38975 13.9898 2.90537C12.4969 1.43584 10.5366 0.634277 8.48583 0.634277C8.47076 0.634277 8.4406 0.634277 8.42552 0.634277C6.35964 0.634277 4.4144 1.43584 2.90647 2.90537C1.39853 4.38975 0.523926 6.42334 0.523926 8.47178C0.523926 11.4108 2.40885 14.3499 3.5398 15.8343C4.0525 16.4726 6.57075 19.6788 8.45568 19.6788ZM4.51996 4.47881C5.59059 3.4249 6.9779 2.846 8.4406 2.846H8.45568C9.91838 2.83115 11.3208 3.4249 12.3914 4.47881C13.4771 5.54756 14.1104 7.00225 14.1104 8.47178C14.1104 10.0897 13.2208 12.2124 11.6827 14.3054C10.2501 16.2499 8.90806 17.289 8.45568 17.4522C8.00329 17.289 6.64615 16.2499 5.22869 14.3054C3.69059 12.2124 2.80091 10.0897 2.80091 8.47178C2.80091 7.00225 3.43424 5.54756 4.51996 4.47881Z" fill="#333333"/>
<path d="M8.45536 11.7671C10.3252 11.7671 11.8482 10.2678 11.8482 8.42722C11.8482 6.58659 10.3252 5.08737 8.45536 5.08737C6.58552 5.08737 5.0625 6.58659 5.0625 8.42722C5.0625 10.2678 6.58552 11.7671 8.45536 11.7671ZM8.45536 7.31394C9.07361 7.31394 9.58631 7.81862 9.58631 8.42722C9.58631 9.03581 9.07361 9.5405 8.45536 9.5405C7.83711 9.5405 7.32441 9.03581 7.32441 8.42722C7.32441 7.80378 7.83711 7.31394 8.45536 7.31394Z" fill="#333333"/>
</svg>
