<svg width="45" height="45" viewBox="0 0 45 45" fill="none" xmlns="http://www.w3.org/2000/svg">
<circle cx="22.5" cy="22.5" r="22.5" fill="#F9BA84" fill-opacity="0.2"/>
<path d="M16.808 30.448L17.288 30.688L17.816 30.616L18.272 30.256L18.392 30.016L18.968 29.392L19.76 27.664L20.672 26.56L20.888 26.032L21.68 26.104L21.176 26.56L21.464 26.992V27.88L21.92 28.96L21.728 29.176L21.8 29.416L22.208 30.04L23.216 30.808L23.6 30.976L24.32 31.048H25.928L26.648 30.832L27.176 30.496L27.392 29.992L27.896 29.68L28.088 28.72L28.184 28.6V27.208L28.328 26.992L27.968 25.96L28.064 25.696L27.896 25.096L27.296 24.64L26.576 24.4L27.176 24.28L27.056 24.04L26.192 23.704L25.208 23.536H24.368L23.672 23.704L22.592 23.824L22.304 23.248L22.424 22.672V22H22.664L23.024 21.592L22.76 21.136L22.976 20.8L23.768 20.008V19.264L24.2 19.216L24.464 18.304L24.824 17.944L25.136 17.104L25.712 16.24L25.808 15.784L26.408 14.872L26.768 14.032L26.816 13.744L26.552 13.264L25.976 13.216L25.52 13.288L24.848 13.552L24.632 14.056L24.728 14.392L23.888 15.232L23.552 16.168L23.288 16.48L23.192 16.672L23.384 16.984L22.76 17.224L22.304 17.176L21.968 16.576L22.016 15.88L21.776 15.784L21.824 15.376L21.536 14.656L21.416 14.56V13.84L21.032 13.456L20.312 12.952L19.808 12.736L19.544 12.664H17.504L16.784 12.904L16.04 13.432L15.752 13.792L15.68 14.128L15.296 14.848L15.224 15.544L15.392 15.688L15.224 16.408L15.296 17.008L15.176 17.272V17.464L15.8 19L16.16 19.384L16.904 19.6L17.552 20.08L18.224 20.248H18.824L19.88 20.104L20.528 19.84L20.84 19.528L21.272 19.408L21.632 19.456L21.152 19.912L21.08 20.776L21.248 20.92L20.744 21.424V21.568L20.36 22.504L18.44 25.792L18.584 26.512L18.368 26.464L17.936 26.776L17.984 27.4L17.408 27.952L17.12 28.744L17.192 28.84L16.832 29.224L16.64 29.536V30.136L16.808 30.448ZM17.792 18.256L17.768 18.016L17.36 17.344L17.048 16.432L17 15.76L17.192 15.424L17.912 14.848L18.488 14.512L18.776 14.464L19.28 14.608L19.544 15.16L20 15.52V16.264L20.072 16.696L19.832 17.296L19.136 17.992V18.304H18.08L17.792 18.256ZM23.984 28.696L23.312 27.424L23.96 25.816L24.416 25.696H25.544L25.904 25.768L26.504 27.328L25.976 28.456L26.072 28.768L25.496 28.984L25.04 29.032L24.416 28.984L23.984 28.696ZM21.464 24.664L21.368 24.496L21.632 24.304L22.328 24.424L21.704 24.664H21.464Z" fill="black"/>
</svg>
