<svg width="17" height="15" viewBox="0 0 17 15" fill="none" xmlns="http://www.w3.org/2000/svg">
<path d="M13.177 0H7.98942C7.66036 0 7.34678 0.12999 7.11451 0.359385L0.362936 7.0233C-0.120979 7.5012 -0.120979 8.27732 0.362936 8.75523L5.55049 13.8784C6.03441 14.3563 6.82029 14.3563 7.30033 13.8784L14.0519 7.21064C14.2842 6.98124 14.4158 6.66774 14.4158 6.34276V1.22344C14.4158 0.546724 13.8622 0 13.177 0ZM11.009 4.28203C10.498 4.28203 10.0799 3.86912 10.0799 3.36445C10.0799 2.85979 10.498 2.44688 11.009 2.44688C11.5201 2.44688 11.9382 2.85979 11.9382 3.36445C11.9382 3.86912 11.5201 4.28203 11.009 4.28203Z" fill="#333333"/>
<path d="M15.1276 1.31763V7.01044C15.1276 7.29335 15.0153 7.56481 14.8102 7.76361L7.9502 14.5384L8.05472 14.6416C8.53863 15.1195 9.32451 15.1195 9.80455 14.6416L15.9987 8.52444C16.2309 8.29504 16.3626 7.98536 16.3626 7.66039V2.54106C16.3664 1.86435 15.8128 1.31763 15.1276 1.31763Z" fill="#333333"/>
</svg>
