<svg width="24" height="24" viewBox="0 0 24 24" fill="none" xmlns="http://www.w3.org/2000/svg">
<path d="M12 0C18.5934 0 24 5.40659 24 12C24 18.6593 18.5934 24 12 24C5.34066 24 0 18.5934 0 12C0 5.40659 5.34066 0 12 0ZM12 3.56044C9.82418 3.56044 8.04396 5.34066 8.04396 7.51648C8.04396 9.69231 9.82418 11.4725 12 11.4725C14.1758 11.4725 15.956 9.69231 15.956 7.51648C15.956 5.34066 14.1758 3.56044 12 3.56044ZM12 20.9011C14.1758 20.9011 16.2198 20.1099 17.7363 18.7912C18.1319 18.4615 18.3297 18 18.3297 17.4725C18.3297 15.2308 16.5495 13.4505 14.3077 13.4505H9.69231C7.45055 13.4505 5.67033 15.2308 5.67033 17.4725C5.67033 18 5.86813 18.4615 6.26374 18.7912C7.78022 20.1099 9.82418 20.9011 12 20.9011Z" fill="#E08433"/>
</svg>
