<svg width="24" height="25" viewBox="0 0 24 25" fill="none" xmlns="http://www.w3.org/2000/svg">
<path d="M7.19952 19.6967C5.87212 19.6967 4.80908 20.7709 4.80908 22.0983C4.80908 23.4257 5.87212 24.5 7.19952 24.5C8.52692 24.5 9.60121 23.4257 9.60121 22.0983C9.60121 20.7709 8.52692 19.6967 7.19952 19.6967Z" fill="white"/>
<path d="M19.1966 19.6967C17.8692 19.6967 16.8062 20.7709 16.8062 22.0983C16.8062 23.4257 17.8692 24.5 19.1966 24.5C20.524 24.5 21.5983 23.4257 21.5983 22.0983C21.5983 20.7709 20.524 19.6967 19.1966 19.6967Z" fill="white"/>
<path d="M8.52121 13.7008H17.4586C18.3586 13.7008 19.146 13.2003 19.5566 12.4634L23.8481 4.67342C23.9438 4.50468 24 4.30783 24 4.09972C24 3.43602 23.46 2.90169 22.802 2.90169H5.05648L3.92032 0.5H0V2.90169H2.40169L6.71572 12.0022L5.09585 14.9439C4.91024 15.2926 4.80337 15.6807 4.80337 16.1025C4.80337 17.4299 5.87767 18.5042 7.20506 18.5042H21.6039V16.1025H7.71127C7.54254 16.1025 7.41317 15.9732 7.41317 15.8044C7.41317 15.7482 7.42442 15.7032 7.44692 15.6582L8.52121 13.7008Z" fill="white"/>
</svg>
