<svg width="29" height="28" viewBox="0 0 29 28" fill="none" xmlns="http://www.w3.org/2000/svg">
<path d="M19.661 0H8.3441C3.74011 0 0 3.74011 0 8.3441V19.661C0 24.2599 3.74011 28 8.3441 28H19.661C24.2599 28 28.0051 24.2599 28.0051 19.6559V8.3441C28 3.74011 24.2599 0 19.661 0ZM25.1848 19.661C25.1848 22.71 22.71 25.1848 19.661 25.1848H8.3441C5.2951 25.1848 2.82033 22.71 2.82033 19.661V8.3441C2.82033 5.2951 5.2951 2.82033 8.3441 2.82033H19.661C22.71 2.82033 25.1848 5.2951 25.1848 8.3441V19.661Z" fill="white"/>
<path d="M14.0002 6.75879C10.006 6.75879 6.75879 10.006 6.75879 14.0002C6.75879 17.9944 10.006 21.2415 14.0002 21.2415C17.9944 21.2415 21.2415 17.9944 21.2415 14.0002C21.2415 10.006 17.9944 6.75879 14.0002 6.75879ZM14.0002 18.4263C11.5559 18.4263 9.57403 16.4445 9.57403 14.0002C9.57403 11.5559 11.5559 9.57403 14.0002 9.57403C16.4445 9.57403 18.4263 11.5559 18.4263 14.0002C18.4263 16.4445 16.4445 18.4263 14.0002 18.4263Z" fill="white"/>
<path d="M21.2568 8.54724C22.2138 8.54724 22.9896 7.77142 22.9896 6.81439C22.9896 5.85737 22.2138 5.08154 21.2568 5.08154C20.2997 5.08154 19.5239 5.85737 19.5239 6.81439C19.5239 7.77142 20.2997 8.54724 21.2568 8.54724Z" fill="white"/>
</svg>
