<svg width="29" height="29" viewBox="0 0 29 29" fill="none" xmlns="http://www.w3.org/2000/svg">
<path d="M14.5 0C6.525 0 0 6.525 0 14.5C0 22.475 6.525 29 14.5 29C22.475 29 29 22.475 29 14.5C29 6.525 22.475 0 14.5 0ZM17.5812 14.5H15.5875C15.5875 17.7625 15.5875 21.75 15.5875 21.75H12.5969C12.5969 21.75 12.5969 17.7625 12.5969 14.5H11.1469V11.9625H12.5969V10.3312C12.5969 9.15312 13.1406 7.25 15.6781 7.25H17.9437V9.69687C17.9437 9.69687 16.5844 9.69687 16.3125 9.69687C16.0406 9.69687 15.6781 9.7875 15.6781 10.4219V11.9625H17.9437L17.5812 14.5Z" fill="white"/>
</svg>
