<svg width="149" height="84" viewBox="0 0 149 84" fill="none" xmlns="http://www.w3.org/2000/svg">
<g clip-path="url(#clip0)">
<path d="M48.704 27.8673C48.704 23.8066 48.2357 20.0645 47.2991 16.6408C46.3625 13.2171 44.8795 10.2711 42.9282 7.80284C40.977 5.3346 38.5574 3.4237 35.5134 1.99052C32.6255 0.716588 29.1132 0 25.0545 0C21.5422 0 18.264 0.716588 15.22 2.07014C12.176 3.4237 9.52226 5.41422 7.25878 7.88246C4.99529 10.4303 3.27816 13.4559 1.95128 17.1185C0.624411 20.7014 0 24.7621 0 29.2209V31.291C0 35.1128 0.624411 38.7754 1.87323 42.1194C3.12205 45.4635 4.83918 48.3299 7.18072 50.7981C9.44421 53.2664 12.2541 55.1773 15.5322 56.5308C18.8104 57.8844 22.4788 58.6009 26.6155 58.6009C29.4254 58.6009 31.8449 58.2825 34.1084 57.7251C36.2939 57.0882 38.3232 56.2919 40.0403 55.3365C41.7575 54.381 43.3185 53.1867 44.6454 51.9128C45.9722 50.6389 47.065 49.3649 47.9235 48.0114L41.2111 41.4028C39.572 43.6322 37.5427 45.3043 35.2792 46.5782C33.0157 47.8521 30.2839 48.4891 27.2399 48.4891C25.0545 48.4891 23.1032 48.091 21.3861 47.2948C19.6689 46.4986 18.186 45.4635 16.9371 44.11C15.6883 42.7564 14.6737 41.164 13.9712 39.3327C13.1907 37.5014 12.8004 35.4313 12.6443 33.2815H48.8601V27.8673H48.704ZM36.45 24.0455H12.7224C13.2687 19.6664 14.6737 16.3223 16.703 13.854C18.8104 11.3858 21.5422 10.1915 24.9764 10.1915C27.0058 10.1915 28.7229 10.51 30.2059 11.2265C31.6108 11.9431 32.7816 12.8986 33.6401 14.0929C34.5767 15.2872 35.2012 16.7204 35.6695 18.2332C36.0597 19.8256 36.3719 21.418 36.45 23.09V24.0455Z" fill="#E08433"/>
<path d="M65.0949 57.6455H49.7969L81.7199 1.11475H97.0179L65.0949 57.6455Z" fill="#E08433"/>
<path d="M4.91723 84.0001C4.13672 84.0001 3.43426 83.8408 2.8879 83.602C2.26349 83.3631 1.79518 82.965 1.32687 82.5669C0.936616 82.0892 0.546359 81.6115 0.312205 80.9745C0.0780513 80.2579 0 79.6209 0 78.9044V78.5063C0 77.71 0.156103 76.9138 0.390257 76.2769C0.624411 75.6399 0.936616 75.0029 1.40492 74.6048C1.79518 74.1271 2.34154 73.8086 2.8879 73.4901C3.43426 73.2513 3.98062 73.092 4.68308 73.092C5.46359 73.092 6.088 73.2513 6.63436 73.4901C7.18072 73.729 7.64903 74.1271 8.03929 74.5252C8.42954 75.0029 8.6637 75.5603 8.8198 76.1972C8.9759 76.8342 9.05396 77.5508 9.05396 78.2674V79.3025H2.34154C2.34154 79.7006 2.41959 80.0987 2.57569 80.4172C2.7318 80.7356 2.8879 81.0541 3.12205 81.293C3.35621 81.5318 3.66841 81.7707 3.98062 81.8503C4.29282 82.0096 4.68308 82.0892 5.07334 82.0892C5.6197 82.0892 6.16606 82.0096 6.55631 81.7707C6.94657 81.5318 7.33683 81.2134 7.64903 80.8153L8.89785 82.0096C8.74175 82.2484 8.5076 82.4873 8.27344 82.7262C8.03929 82.965 7.72708 83.2039 7.41488 83.3631C7.10267 83.5224 6.71242 83.6816 6.32216 83.8409C5.9319 83.9205 5.46359 84.0001 4.91723 84.0001ZM4.68308 75.0029C4.05867 75.0029 3.51231 75.2418 3.12205 75.7195C2.7318 76.1972 2.49764 76.8342 2.34154 77.6304H6.79047V77.4712C6.79047 77.1527 6.71241 76.8342 6.63436 76.5954C6.55631 76.2769 6.40021 76.038 6.24411 75.7991C6.088 75.5603 5.85385 75.401 5.6197 75.2418C5.38554 75.0826 5.07334 75.0029 4.68308 75.0029Z" fill="black"/>
<path d="M13.0345 73.2512L13.1125 74.4455C13.5028 73.9678 13.8931 73.6493 14.4394 73.4104C14.9858 73.1716 15.5321 73.0123 16.1565 73.0123C16.6248 73.0123 17.0932 73.092 17.4834 73.2512C17.8737 73.4104 18.2639 73.6493 18.4981 73.8882C18.8103 74.2066 19.0444 74.6048 19.1225 75.0825C19.2786 75.5602 19.3566 76.1972 19.3566 76.9138V83.6815H17.0151V76.8341C17.0151 76.436 16.9371 76.1972 16.859 75.8787C16.781 75.6398 16.7029 75.401 16.5468 75.2417C16.3907 75.0825 16.2346 75.0029 16.0004 74.9232C15.7663 74.8436 15.5321 74.8436 15.2199 74.8436C14.7516 74.8436 14.3614 74.9232 13.9711 75.1621C13.5808 75.401 13.3467 75.7194 13.1125 76.1175V83.6019H10.771V73.2512H13.0345Z" fill="black"/>
<path d="M21.3081 78.4266C21.3081 77.6304 21.3862 76.9935 21.6203 76.2769C21.8545 75.6399 22.1667 75.0826 22.5569 74.6048C22.9472 74.1271 23.4935 73.729 24.0399 73.4901C24.6643 73.2513 25.2887 73.092 26.0692 73.092C26.8498 73.092 27.4742 73.2513 28.0986 73.4901C28.723 73.729 29.1913 74.1271 29.5816 74.6048C29.9718 75.0826 30.284 75.6399 30.5182 76.2769C30.7523 76.9138 30.8304 77.6304 30.8304 78.4266V78.6655C30.8304 79.4617 30.7523 80.1783 30.5182 80.8153C30.284 81.4522 29.9718 82.0096 29.5816 82.4873C29.1913 82.965 28.6449 83.3631 28.0986 83.602C27.4742 83.8408 26.8498 84.0001 26.0692 84.0001C25.2887 84.0001 24.6643 83.8408 24.0399 83.602C23.4155 83.3631 22.9472 82.965 22.5569 82.4873C22.1667 82.0096 21.8545 81.4522 21.6203 80.8153C21.3862 80.1783 21.3081 79.4617 21.3081 78.6655V78.4266ZM23.5716 78.6655C23.5716 79.1432 23.6496 79.6209 23.7277 80.0191C23.8057 80.4172 23.9619 80.8153 24.196 81.1337C24.4302 81.4522 24.6643 81.6911 24.9765 81.8503C25.2887 82.0096 25.679 82.0892 26.0692 82.0892C26.4595 82.0892 26.8498 82.0096 27.162 81.8503C27.4742 81.6911 27.7083 81.4522 27.9425 81.1337C28.1766 80.8153 28.2547 80.4172 28.4108 80.0191C28.4888 79.6209 28.5669 79.1432 28.5669 78.6655V78.4266C28.5669 77.9489 28.4888 77.5508 28.4108 77.0731C28.3327 76.675 28.1766 76.2769 27.9425 75.9584C27.7083 75.6399 27.4742 75.401 27.162 75.2418C26.8498 75.0826 26.4595 74.9233 26.0692 74.9233C25.6009 74.9233 25.2887 75.0029 24.9765 75.2418C24.6643 75.401 24.4302 75.7195 24.196 75.9584C23.9619 76.2769 23.8057 76.675 23.7277 77.0731C23.6496 77.4712 23.5716 77.9489 23.5716 78.4266V78.6655Z" fill="black"/>
<path d="M35.7476 70.7034V73.2512H37.5428V75.0029H35.7476V80.8948C35.7476 81.1337 35.7476 81.293 35.8257 81.4522C35.9037 81.6114 35.9818 81.6911 36.0598 81.7707C36.1379 81.8503 36.294 81.9299 36.372 81.9299C36.5281 81.9299 36.6843 82.0095 36.8404 82.0095C36.9965 82.0095 37.1526 82.0095 37.3087 82.0095C37.4648 82.0095 37.5428 81.9299 37.6209 81.9299V83.7612C37.4648 83.8408 37.2306 83.8408 36.9965 83.9204C36.7623 84.0001 36.4501 84.0001 36.1379 84.0001C35.7476 84.0001 35.4354 83.9204 35.0452 83.8408C34.733 83.7612 34.4208 83.602 34.1866 83.3631C33.9525 83.1242 33.7964 82.8057 33.6402 82.4873C33.4841 82.0892 33.4061 81.6911 33.4061 81.1337V75.1621H31.689V73.2512H33.4061V70.7034H35.7476Z" fill="black"/>
<path d="M43.865 84.0001C43.0845 84.0001 42.382 83.8408 41.8357 83.602C41.2112 83.3631 40.7429 82.965 40.2746 82.5669C39.8844 82.0892 39.4941 81.6114 39.26 80.9745C39.0258 80.3375 38.9478 79.7005 38.9478 78.984V78.5858C38.9478 77.7896 39.1039 76.9934 39.338 76.3565C39.5722 75.7195 39.8844 75.0825 40.3527 74.6844C40.7429 74.2067 41.2893 73.8882 41.8357 73.5697C42.382 73.3309 43.0064 73.1716 43.7089 73.1716C44.4894 73.1716 45.1138 73.3309 45.6602 73.5697C46.2065 73.8086 46.6748 74.2067 47.0651 74.6048C47.4554 75.0825 47.6895 75.6399 47.8456 76.2768C48.0017 76.9138 48.0798 77.6304 48.0798 78.347V79.3821H41.3673C41.3673 79.7802 41.4454 80.1783 41.6015 80.4967C41.7576 80.8152 41.9137 81.1337 42.1479 81.3726C42.382 81.6114 42.6942 81.8503 43.0064 81.9299C43.3186 82.0892 43.7089 82.1688 44.0991 82.1688C44.6455 82.1688 45.1919 82.0892 45.5821 81.8503C45.9724 81.6114 46.3626 81.293 46.6748 80.8949L47.9237 82.0892C47.7676 82.328 47.5334 82.5669 47.2992 82.8058C47.0651 83.0446 46.7529 83.2835 46.4407 83.4427C46.1285 83.602 45.7382 83.7612 45.348 83.9204C44.9577 84.0797 44.3333 84.0001 43.865 84.0001ZM43.5528 75.0029C42.9284 75.0029 42.382 75.2418 41.9918 75.7195C41.6015 76.1972 41.3673 76.8342 41.2112 77.6304H45.6602V77.4712C45.6602 77.1527 45.5821 76.8342 45.5041 76.5953C45.426 76.2768 45.2699 76.038 45.1138 75.7991C44.9577 75.5603 44.7236 75.401 44.4894 75.2418C44.2552 75.0825 43.943 75.0029 43.5528 75.0029Z" fill="black"/>
<path d="M54.0115 82.0892C54.3237 82.0892 54.5579 82.0095 54.7921 81.9299C55.0262 81.8503 55.2604 81.6911 55.4165 81.5318C55.5726 81.3726 55.7287 81.2133 55.8848 80.9745C55.9628 80.7356 56.0409 80.4967 56.0409 80.2579H58.2263C58.2263 80.7356 58.0702 81.2133 57.8361 81.6911C57.6019 82.1688 57.2897 82.5669 56.8994 82.8854C56.5092 83.2039 56.1189 83.4427 55.5726 83.6816C55.1043 83.8408 54.5579 84.0001 53.9335 84.0001C53.153 84.0001 52.4505 83.8408 51.8261 83.602C51.2017 83.3631 50.7334 82.965 50.3431 82.4873C49.9529 82.0095 49.6407 81.4522 49.4846 80.8152C49.3285 80.1783 49.1724 79.4617 49.1724 78.7451V78.4266C49.1724 77.71 49.2504 76.9934 49.4846 76.3565C49.6407 75.7195 49.9529 75.1622 50.3431 74.6844C50.7334 74.2067 51.2017 73.8086 51.8261 73.5697C52.3725 73.3309 53.0749 73.1716 53.8554 73.1716C54.4798 73.1716 55.0262 73.2513 55.5726 73.4901C56.1189 73.6494 56.5092 73.9678 56.8994 74.2863C57.2897 74.6048 57.5238 75.0825 57.758 75.5603C57.9922 76.038 58.0702 76.5953 58.0702 77.1527H55.8848C55.8848 76.9138 55.8067 76.5953 55.7287 76.3565C55.6506 76.1176 55.4945 75.8787 55.3384 75.7195C55.1823 75.5603 54.9482 75.401 54.714 75.2418C54.4798 75.1622 54.1676 75.0825 53.8554 75.0825C53.3871 75.0825 52.9969 75.1621 52.6847 75.401C52.3725 75.5603 52.1383 75.8787 51.9822 76.1972C51.8261 76.5157 51.67 76.9138 51.592 77.3119C51.5139 77.71 51.5139 78.1081 51.5139 78.5858V78.9043C51.5139 79.3024 51.5139 79.7802 51.592 80.1783C51.67 80.5764 51.7481 80.9745 51.9822 81.293C52.1383 81.6114 52.3725 81.8503 52.6847 82.0892C53.153 82.0095 53.5432 82.0892 54.0115 82.0892Z" fill="black"/>
<path d="M66.1873 83.7611C66.1093 83.6019 66.1093 83.5223 66.0312 83.2834C65.9532 83.1242 65.9532 82.9649 65.9532 82.7261C65.7971 82.8853 65.641 83.0446 65.4068 83.2038C65.2507 83.363 65.0166 83.4427 64.7824 83.6019C64.5482 83.6815 64.3141 83.7612 64.0799 83.8408C63.8458 83.9204 63.5336 83.9204 63.2214 83.9204C62.675 83.9204 62.2067 83.8408 61.8164 83.6815C61.3481 83.5223 61.0359 83.2834 60.7237 83.0446C60.4115 82.7261 60.1774 82.4076 60.0213 82.0095C59.8652 81.6114 59.7871 81.2133 59.7871 80.7356C59.7871 80.1782 59.8652 79.7005 60.0993 79.2228C60.3335 78.8247 60.6457 78.4266 61.0359 78.1081C61.4262 77.7896 61.8945 77.6303 62.5189 77.4711C63.0653 77.3119 63.7677 77.2322 64.4702 77.2322H65.9532V76.5156C65.9532 75.9583 65.7971 75.5602 65.4849 75.2417C65.1727 74.9232 64.7043 74.764 64.158 74.764C63.8458 74.764 63.6116 74.764 63.3775 74.8436C63.1433 74.9232 62.9872 75.0029 62.8311 75.1621C62.675 75.3213 62.5189 75.401 62.4409 75.6398C62.3628 75.7991 62.2848 76.0379 62.2848 76.1972H59.9432C59.9432 75.7991 60.0213 75.401 60.2554 75.0029C60.4896 74.6047 60.7237 74.2863 61.114 73.9678C61.5042 73.6493 61.8945 73.4104 62.4409 73.2512C62.9872 73.092 63.5336 73.0123 64.236 73.0123C64.7824 73.0123 65.3288 73.092 65.8751 73.2512C66.3434 73.4104 66.8117 73.6493 67.1239 73.9678C67.5142 74.2863 67.7483 74.6048 67.9825 75.0825C68.2167 75.5602 68.2947 76.0379 68.2947 76.6749V81.3725C68.2947 82.328 68.4508 83.0446 68.685 83.6019V83.7611H66.1873ZM63.6116 82.0891C63.8458 82.0891 64.158 82.0891 64.3921 82.0095C64.6263 81.9299 64.8605 81.8502 65.0166 81.691C65.1727 81.6114 65.4068 81.4521 65.4849 81.2929C65.641 81.1337 65.719 80.9744 65.7971 80.8152V78.8247H64.5482C63.6897 78.8247 63.0653 78.9839 62.597 79.3024C62.1286 79.6209 61.9726 80.019 61.9726 80.5763C61.9726 80.8152 61.9725 80.9744 62.0506 81.1337C62.1287 81.2929 62.2067 81.4521 62.3628 81.6114C62.5189 81.7706 62.675 81.8503 62.9092 81.9299C63.1433 82.0891 63.3775 82.0891 63.6116 82.0891Z" fill="black"/>
<path d="M72.4314 83.7612H69.6216L75.5535 73.2512H78.3633L72.4314 83.7612Z" fill="#E08433"/>
<path d="M81.6419 73.2512L81.72 74.4455C82.1102 73.9678 82.5005 73.6493 83.0468 73.4104C83.5932 73.1716 84.1395 73.0123 84.764 73.0123C85.2323 73.0123 85.7006 73.092 86.0908 73.2512C86.4811 73.4104 86.8713 73.6493 87.1055 73.8882C87.4177 74.2066 87.5738 74.6048 87.7299 75.0825C87.886 75.5602 87.9641 76.1972 87.9641 76.9137V83.6815H85.6225V76.8341C85.6225 76.436 85.5445 76.1972 85.4664 75.8787C85.3884 75.6398 85.3103 75.401 85.1542 75.2417C84.9981 75.0825 84.842 75.0029 84.6079 74.9232C84.3737 74.8436 84.1395 74.8436 83.8273 74.8436C83.359 74.8436 82.9688 74.9232 82.5785 75.1621C82.1883 75.401 81.9541 75.7194 81.72 76.1175V83.6019H79.3784V73.2512H81.6419Z" fill="black"/>
<path d="M96.4715 83.7611C96.3934 83.6019 96.3934 83.5223 96.3154 83.2834C96.2373 83.1242 96.2373 82.9649 96.2373 82.7261C96.0812 82.8853 95.9251 83.0445 95.691 83.2038C95.5349 83.363 95.3007 83.4427 95.0666 83.6019C94.8324 83.6815 94.5983 83.7611 94.3641 83.8408C94.13 83.9204 93.8178 83.9204 93.5055 83.9204C92.9592 83.9204 92.4909 83.8408 92.1006 83.6815C91.6323 83.5223 91.3201 83.2834 91.0079 83.0446C90.6957 82.7261 90.4615 82.4076 90.3054 82.0095C90.1493 81.6114 90.0713 81.2133 90.0713 80.7355C90.0713 80.1782 90.1493 79.7005 90.3835 79.2228C90.6176 78.8246 90.9299 78.4265 91.3201 78.1081C91.7104 77.7896 92.1787 77.6303 92.8031 77.4711C93.3494 77.3119 94.0519 77.2322 94.7544 77.2322H96.2373V76.5156C96.2373 75.9583 96.0812 75.5602 95.769 75.2417C95.4568 74.9232 94.9885 74.764 94.4422 74.764C94.208 74.764 93.8958 74.764 93.6616 74.8436C93.4275 74.9232 93.2714 75.0029 93.1153 75.1621C92.9592 75.3213 92.8031 75.401 92.725 75.6398C92.647 75.7991 92.5689 76.0379 92.5689 76.1972H90.2274C90.2274 75.7991 90.3054 75.401 90.5396 75.0028C90.7737 74.6047 91.0079 74.2863 91.3982 73.9678C91.7884 73.6493 92.1787 73.4104 92.725 73.2512C93.2714 73.092 93.8177 73.0123 94.5202 73.0123C95.0666 73.0123 95.6129 73.092 96.1593 73.2512C96.6276 73.4104 97.0959 73.6493 97.4081 73.9678C97.7984 74.2863 98.0325 74.6047 98.2667 75.0825C98.5008 75.5602 98.5789 76.0379 98.5789 76.6749V81.3725C98.5789 82.328 98.735 83.0445 98.9691 83.6019V83.7611H96.4715ZM93.9739 82.0891C94.208 82.0891 94.5202 82.0891 94.7544 82.0095C94.9885 81.9299 95.2227 81.8502 95.3788 81.691C95.5349 81.6114 95.691 81.4521 95.8471 81.2929C96.0032 81.1336 96.0812 80.9744 96.1593 80.8152V78.8246H94.9105C94.0519 78.8246 93.4275 78.9839 92.9592 79.3024C92.4909 79.6209 92.3348 80.019 92.3348 80.5763C92.3348 80.8152 92.3348 80.9744 92.4128 81.1337C92.4909 81.2929 92.5689 81.4521 92.725 81.6114C92.8811 81.7706 93.0372 81.8502 93.2714 81.9299C93.4275 82.0891 93.6616 82.0891 93.9739 82.0891Z" fill="black"/>
<path d="M103.809 70.7034V73.2512H105.604V75.0029H103.809V80.8948C103.809 81.1337 103.809 81.2929 103.887 81.4522C103.965 81.6114 104.043 81.691 104.121 81.7707C104.199 81.8503 104.355 81.9299 104.433 81.9299C104.589 81.9299 104.745 82.0095 104.901 82.0095C105.057 82.0095 105.214 82.0095 105.37 82.0095C105.526 82.0095 105.604 81.9299 105.682 81.9299V83.7612C105.526 83.8408 105.292 83.8408 105.057 83.9204C104.823 84.0001 104.511 84.0001 104.199 84.0001C103.809 84.0001 103.496 83.9204 103.106 83.8408C102.794 83.7612 102.482 83.6019 102.248 83.3631C102.013 83.1242 101.857 82.8057 101.701 82.4873C101.545 82.0892 101.467 81.691 101.467 81.1337V75.1621H99.75V73.2512H101.467V70.7034H103.809Z" fill="black"/>
<path d="M113.643 82.7261C113.331 83.1242 112.941 83.4427 112.472 83.6019C112.004 83.8408 111.458 83.9204 110.755 83.9204C110.209 83.9204 109.818 83.8408 109.35 83.6816C108.882 83.5223 108.57 83.2835 108.257 82.965C107.945 82.6465 107.711 82.2484 107.555 81.7707C107.399 81.2929 107.321 80.656 107.321 80.019V73.2512H109.662V80.0986C109.662 80.4967 109.74 80.8152 109.818 81.0541C109.896 81.2929 110.053 81.5318 110.209 81.691C110.365 81.8503 110.521 81.9299 110.755 82.0095C110.989 82.0891 111.145 82.0891 111.379 82.0891C112.004 82.0891 112.472 82.0095 112.862 81.7707C113.253 81.5318 113.487 81.2133 113.721 80.8948V73.2512H116.063V83.7612H113.877L113.643 82.7261Z" fill="black"/>
<path d="M123.634 75.401C123.477 75.401 123.321 75.3213 123.165 75.3213C123.009 75.3213 122.853 75.3213 122.697 75.3213C122.151 75.3213 121.682 75.401 121.37 75.6398C121.058 75.8787 120.746 76.1972 120.59 76.5156V83.6815H118.248V73.2512H120.433L120.512 74.4455C120.746 74.0474 121.058 73.6493 121.448 73.4104C121.838 73.1716 122.307 73.0123 122.775 73.0123C122.931 73.0123 123.087 73.0123 123.243 73.092C123.399 73.092 123.556 73.1716 123.634 73.1716V75.401Z" fill="black"/>
<path d="M130.971 83.7611C130.892 83.6019 130.892 83.5223 130.814 83.2834C130.736 83.1242 130.736 82.9649 130.736 82.7261C130.58 82.8853 130.424 83.0445 130.19 83.2038C130.034 83.363 129.8 83.4427 129.566 83.6019C129.331 83.6815 129.097 83.7611 128.863 83.8408C128.629 83.9204 128.317 83.9204 128.005 83.9204C127.458 83.9204 126.99 83.8408 126.6 83.6815C126.131 83.5223 125.819 83.2834 125.507 83.0446C125.195 82.7261 124.961 82.4076 124.804 82.0095C124.648 81.6114 124.57 81.2133 124.57 80.7355C124.57 80.1782 124.648 79.7005 124.883 79.2228C125.117 78.8246 125.429 78.4265 125.819 78.1081C126.209 77.7896 126.678 77.6303 127.302 77.4711C127.848 77.3119 128.551 77.2322 129.253 77.2322H130.736V76.5156C130.736 75.9583 130.58 75.5602 130.268 75.2417C129.956 74.9232 129.488 74.764 128.941 74.764C128.629 74.764 128.395 74.764 128.161 74.8436C127.927 74.9232 127.77 75.0029 127.614 75.1621C127.458 75.3213 127.302 75.401 127.224 75.6398C127.146 75.7991 127.068 76.0379 127.068 76.1972H124.726C124.726 75.7991 124.804 75.401 125.039 75.0028C125.273 74.6047 125.507 74.2863 125.897 73.9678C126.287 73.6493 126.678 73.4104 127.224 73.2512C127.77 73.092 128.317 73.0123 129.019 73.0123C129.566 73.0123 130.112 73.092 130.658 73.2512C131.127 73.4104 131.595 73.6493 131.907 73.9678C132.297 74.2863 132.532 74.6047 132.766 75.0825C133 75.5602 133.078 76.0379 133.078 76.6749V81.3725C133.078 82.328 133.234 83.0445 133.468 83.6019V83.7611H130.971ZM128.395 82.0891C128.629 82.0891 128.941 82.0891 129.175 82.0095C129.409 81.9299 129.644 81.8502 129.8 81.691C129.956 81.6114 130.19 81.4521 130.268 81.2929C130.424 81.1336 130.502 80.9744 130.58 80.8152V78.8246H129.331C128.473 78.8246 127.848 78.9839 127.38 79.3024C126.912 79.6209 126.756 80.019 126.756 80.5763C126.756 80.8152 126.756 80.9744 126.834 81.1337C126.912 81.2929 126.99 81.4521 127.146 81.6114C127.302 81.7706 127.458 81.8502 127.692 81.9299C127.927 82.0891 128.161 82.0891 128.395 82.0891Z" fill="black"/>
<path d="M137.839 83.7612H135.498V68.8721H137.839V83.7612Z" fill="black"/>
<path d="M144.864 84.0001C144.083 84.0001 143.381 83.8408 142.834 83.602C142.21 83.3631 141.741 82.965 141.273 82.5669C140.883 82.0892 140.493 81.6114 140.258 80.9745C140.024 80.3375 139.946 79.7005 139.946 78.9839V78.5858C139.946 77.7896 140.102 76.9934 140.337 76.3565C140.571 75.7195 140.883 75.0825 141.351 74.6844C141.741 74.2067 142.288 73.8882 142.834 73.5697C143.381 73.3309 144.005 73.1716 144.629 73.1716C145.41 73.1716 146.034 73.3309 146.581 73.5697C147.127 73.8086 147.595 74.2067 147.986 74.6048C148.376 75.0825 148.61 75.6399 148.766 76.2768C148.922 76.9138 149 77.6304 149 78.347V79.3821H142.288C142.288 79.7802 142.366 80.1783 142.522 80.4967C142.678 80.8152 142.834 81.1337 143.068 81.3726C143.302 81.6114 143.615 81.8503 143.927 81.9299C144.239 82.0892 144.629 82.1688 145.02 82.1688C145.566 82.1688 146.112 82.0892 146.503 81.8503C146.893 81.6114 147.283 81.293 147.595 80.8948L148.844 82.0892C148.688 82.328 148.454 82.5669 148.22 82.8057C147.986 83.0446 147.673 83.2835 147.361 83.4427C147.049 83.602 146.659 83.7612 146.268 83.9204C145.878 83.9204 145.41 84.0001 144.864 84.0001ZM144.629 75.0029C144.005 75.0029 143.459 75.2418 143.068 75.7195C142.678 76.1972 142.444 76.8342 142.288 77.6304H146.737V77.4712C146.737 77.1527 146.659 76.8342 146.581 76.5953C146.503 76.2768 146.347 76.038 146.19 75.7991C146.034 75.5603 145.8 75.401 145.566 75.2418C145.332 75.0825 144.942 75.0029 144.629 75.0029Z" fill="black"/>
<path d="M149 57.6455H136.59V21.0199C136.59 19.109 136.355 17.4369 135.965 16.0834C135.575 14.7298 134.951 13.6948 134.092 12.8189C133.233 12.0227 132.297 11.3858 131.048 10.9876C129.799 10.5895 128.472 10.4303 126.911 10.4303C124.336 10.4303 122.15 11.0673 120.199 12.3412C118.326 13.6151 116.765 15.2872 115.672 17.4369V57.6455H103.262V1.11466H114.969L115.36 7.64357C117.311 5.25495 119.653 3.34405 122.384 2.07011C125.116 0.716557 128.16 0.0795898 131.516 0.0795898C134.17 0.0795898 136.59 0.477694 138.775 1.19428C140.961 1.99049 142.756 3.1848 144.317 4.85684C145.878 6.52888 147.049 8.67864 147.907 11.3858C148.766 14.0929 149.156 17.3573 149.156 21.1791V57.6455H149Z" fill="#E08433"/>
</g>
<defs>
<clipPath id="clip0">
<rect width="149" height="84" fill="white"/>
</clipPath>
</defs>
</svg>
